<svg width="84" height="74" viewBox="0 0 84 74" fill="none" xmlns="http://www.w3.org/2000/svg">
<path fill-rule="evenodd" clip-rule="evenodd" d="M0 1C0 0.447715 0.447716 0 1 0H83C83.5523 0 84 0.447715 84 0.999999V73C84 73.5523 83.5523 74 83 74H50C49.4477 74 49 73.5523 49 73V55C49 54.4477 48.5523 54 48 54H36C35.4477 54 35 54.4477 35 55V73C35 73.5523 34.5523 74 34 74H1C0.447715 74 0 73.5523 0 73V1ZM36 25C35.4477 25 35 25.4477 35 26V40C35 40.5523 35.4477 41 36 41H48C48.5523 41 49 40.5523 49 40V26C49 25.4477 48.5523 25 48 25H36Z"/>
</svg>
