<svg xmlns="http://www.w3.org/2000/svg" viewBox="0 0 288.69 325.52">
  <path class="cls-1" d="m275.55,123.09c-2.36-8.21-11.36-2.84-11.36-2.84,0,0-.16-.79-1.42-15.31-1.26-14.52-5.21-41.81-34.71-68.16-29.51-26.36-77.51-25.09-77.51-25.09h-12.28c-12.27-.02-38.34,4.73-59.96,16.56-21.61,11.84-33.29,34.56-39.6,51.13-6.31,16.57-8.52,47.18-8.52,47.18,0,0-6.31-3.32-8.84-2.05-2.52,1.26-6.94,3.15-2.52,21.46,4.42,18.3,15.15,30.92,18.14,36.76,3,5.84,8.52,4.42,9.63,3.47,1.1-.94,1.58-3.78,1.58-3.78,0,0,1.1,29.35,2.21,36.29,1.1,6.94,5.2,19.56,8.67,24.14,3.48,4.58,6.79,8.21,6.79,8.21l6.31-.32s-.32,3.47,0,6.15c.32,2.69,2.05,5.84,4.1,7.74,2.05,1.89,23.36,26.03,30.61,30.92,7.26,4.89,13.73,10.57,44,10.57s36.95-8.2,40.74-11.2,20.04-18.46,29.19-29.03c9.15-10.57,21.93-26.98,24.93-35.66s5.37-45.45,5.37-45.45c0,0,.63,1.27,2.68,1.11,2.05-.16,5.84-3.47,7.73-7.58,1.89-4.1,2.68-4.1,8.68-20.19,5.99-16.1,7.73-26.83,5.36-35.03Zm-200.2-.65c-1.08.06-1.56-.72-1.8-1.32-.24-.59.08-2.79.77-3.71s4.37-6.44,15.99-12.77c11.62-6.33,20.02-4.83,20.02-4.83,0,0,2.8.45,5.31,1.11,2.51.65,4.31,2.99,4.73,3.76.42.78.59,1.62,0,2.75-.6,1.14-1.92,1.26-8.37,1.44-6.46.18-11.9,1.49-17.7,3.65-5.8,2.15-10.58,5.91-13.69,7.95-3.11,2.03-4.19,1.91-5.26,1.97Zm27.73,47.96c-8.57,0-15.52-7.91-15.52-17.66s6.95-17.66,15.52-17.66,15.52,7.91,15.52,17.66-6.95,17.66-15.52,17.66Zm88.88,74.66c-3.22,2.29-7.61,2.6-18.21,0-10.59-2.6-33.26-1.24-36.17-1.05-2.91.18-9.47,1.18-12.07,1.79-2.6.62-4.96,1.51-8.92,1.1-3.97-.41-6.57-3.82-6.94-7.17-.37-3.34.62-9.84,5.58-17.96,4.95-8.11,13.76-18.58,37.32-18.58,0,0,11.05-1.11,22.5,4.71,11.46,5.82,18.71,13.81,20.38,20.69,1.67,6.87-.25,14.18-3.47,16.47Zm7.17-74.66c-8.57,0-15.52-7.91-15.52-17.66s6.95-17.66,15.52-17.66,15.52,7.91,15.52,17.66-6.95,17.66-15.52,17.66Zm28.96-49.28c-.24.6-.72,1.38-1.8,1.32-1.07-.06-2.15.06-5.26-1.97-3.11-2.04-7.89-5.8-13.69-7.95-5.8-2.16-11.24-3.47-17.7-3.65-6.45-.18-7.77-.3-8.37-1.44-.59-1.13-.41-1.97,0-2.75.42-.77,2.22-3.11,4.73-3.76,2.51-.66,5.31-1.11,5.31-1.11,0,0,8.4-1.5,20.02,4.83,11.62,6.33,15.3,11.85,15.99,12.77s1.01,3.12.77,3.71Z"/>
</svg>