<svg xmlns="http://www.w3.org/2000/svg" xmlns:xlink="http://www.w3.org/1999/xlink" aria-hidden="true" role="img" class="iconify iconify--emojione-monotone" preserveAspectRatio="xMidYMid meet" viewBox="2 4 60 56"><path d="M8.815 34.029c5.918-3.433 13.38-1.699 17.127 3.82l2.31-1.34a3.93 3.93 0 0 1 2.88-4.968v-2.643c-6.675-.453-11.951-6.1-11.953-13c.001-5.297 3.11-9.855 7.574-11.894l-.034.012A.982.982 0 0 0 26.753 4a16.871 16.871 0 0 0-11.54 16.03v.004c0 2.257.441 4.409 1.241 6.377a16.68 16.68 0 0 0-6.059 2.099C3.953 32.249.91 39.629 2.353 46.568a13.062 13.062 0 0 1 6.462-12.539" fill="#969696"></path><path d="M61.999 43.301c.058-5.889-2.959-11.636-8.395-14.791a16.692 16.692 0 0 0-6.059-2.099c.8-1.968 1.241-4.12 1.241-6.377v-.001v-.002A16.87 16.87 0 0 0 37.246 4a.36.36 0 0 0 .034.017l-.034-.012c4.464 2.038 7.573 6.597 7.573 11.894c-.001 6.9-5.277 12.547-11.953 13v2.643a3.93 3.93 0 0 1 3.046 3.835c0 .416-.064.814-.183 1.191l2.296 1.332c3.737-5.554 11.224-7.31 17.158-3.867a13.067 13.067 0 0 1 6.462 12.535v-.002v.008c.228-1.086.343-2.181.354-3.273" fill="#969696"></path><path d="M42.363 56.348a13.065 13.065 0 0 1-6.523-11.256a12.757 12.757 0 0 1 1.313-5.684L34.85 38.07A3.887 3.887 0 0 1 32 39.31a3.892 3.892 0 0 1-2.892-1.283l-2.287 1.326c3.012 6.055.791 13.527-5.186 16.994A12.92 12.92 0 0 1 7.6 55.703c5.259 4.725 13.141 5.768 19.583 2.029a16.761 16.761 0 0 0 4.815-4.193a16.747 16.747 0 0 0 4.819 4.197c6.441 3.738 14.324 2.697 19.583-2.029l-.025.018l.025-.021a12.927 12.927 0 0 1-14.037.644" fill="#969696"></path></svg>