<svg xmlns="http://www.w3.org/2000/svg" width="800" height="1033.333" viewBox="0 0 600 775" preserveAspectRatio="xMidYMid meet"><path d="M291.5 2.1c-12.4 1.3-32.4 5.4-50.3 10.4-18.3 5-20.9 6.1-24.5 10.5-5.1 6-4.7 10.7 2.1 30 4.8 13.4 17.1 58.4 16.2 59.4-.5.4-1.2.6-1.7.3-.4-.3-6.9-12.5-14.3-27.1-15.4-30.4-12.6-27.9-25.9-22.4-21.7 9.1-42.4 31-43.9 46.7-.8 9-2.4 6.9 57.6 77.8 22.8 27 26.8 31.3 29.1 31.3 1.5 0 11.1-.9 21.2-2 10.1-1.2 26.5-2.4 36.4-2.9 23.4-1 25.4-1.9 34.1-15.6 2.8-4.5 13.3-19.4 17.1-24.4.2-.3.7 0 1.2.5s-2.3 9.1-6.9 20.9l-7.9 20 3.2 1.4c1.8.7 6.7 1.6 10.9 1.8 8.9.7 15.6-1.1 22.4-5.8 4.9-3.3 64.9-71.9 71-81.2 6.4-9.6 8.7-16.7 8.8-26.7.1-9.5-2.2-15.8-8.3-23.5-6.4-7.9-24.1-20.1-26-17.9-.5.5-6.3 8.2-13.1 17.1-6.8 9-12.9 16.3-13.7 16.3-.7 0-1.3-.3-1.3-.6s5.7-14.4 12.6-31.2c13.5-32.7 15.2-38.6 11.8-42.3-2.8-3.2-9.5-6.2-23.4-10.7-29.9-9.6-64-13.3-94.5-10.1zm-3.3 233.4c-6.5 2.8-10.5 7.1-25.3 27-10.1 13.5-15.6 20.2-16.5 19.8-1.5-.5-1.8.1 13.7-28 6.7-12.1 6.7-12.3 4.9-14.5l-1.8-2.3-4.4 2.4c-25.1 14-39.1 23.7-61.3 42.6-62.8 53.4-112.6 114.8-152 187.5S-6.7 602.5 5.2 657.9c11.3 52.6 48.3 89.4 100.6 100.1 72.7 14.7 198.4 20.1 294.2 12.4 49.2-3.9 97.6-11 115.6-17 36.1-12 62.8-41.4 75.8-83.4 5.9-19.3 7.1-27 7.1-49.5 0-28.8-3.8-49.3-15.5-84.5-24-72.2-69.7-143.5-140.4-219.3-25.7-27.5-59.6-54.9-85.6-69-6.6-3.7-25-11-25.7-10.4-.2.2 2.3 12.7 5.6 27.8l5.6 27.7c-.7.7-9.4-14.4-17.1-30-8.9-17.7-13.2-23.6-19.5-26.9-4.5-2.3-12.9-2.5-17.7-.4zm-5.7 81.5l15.1 3.3c.1.1-1.9 11-4.6 24.2l-4.7 24.1c.4.4 36.1 7.4 36.3 7.1.1-.1 2.3-10.8 4.9-23.7l5.1-24.1c.2-.3 7.3.8 15.9 2.5 12.2 2.4 15.5 3.4 15.5 4.6 0 .9-2 11.7-4.5 24l-4.5 23.2c0 .4.8.8 1.8.8 3.1 0 24.8 7.8 32.3 11.6 23.6 11.8 40.2 29.9 45.4 49.4 3.2 11.9 1 28.9-5.5 42.8-5.3 11.4-19.4 23.6-36.7 32l-8 3.9 8 6.9c9.7 8.3 21.5 22.6 25.5 30.9 4.8 9.9 6.5 18.8 6 31.2-2 41.5-35 68.5-83.8 68.6-12 0-29-2.2-38.1-4.9-1.4-.4-2.4 3.3-6.4 23.8-2.6 13.4-5.1 24.7-5.6 25.2-.7.7-23.1-3-30-5-1.4-.4-1-3.3 3.3-24.7 2.6-13.3 4.6-24.7 4.4-25.2-.5-1.4-34.6-7.9-35.6-6.8-.4.4-2.9 11.7-5.5 25.1-4.6 23.1-4.9 24.3-6.9 23.8-1.2-.2-8.3-1.7-15.8-3.2-7.9-1.5-13.8-3.2-13.8-3.8s2.2-12 4.8-25.2l4.8-24.2-28.5-5.7-29.2-6.1c-.3-.2.7-7.1 2.4-15.4 3.4-17.1 2.3-16 13.7-13.5 8.3 1.8 14.2 1.9 18.4.1 5.1-2.1 10.3-7.3 12-11.9.8-2.3 9.2-42.8 18.6-90 12.7-63.8 16.9-86.7 16.4-89.5-.9-5.4-5-11.9-9.2-14.7-2.3-1.5-7.6-3.2-13.6-4.5-5.5-1.1-10.2-2.3-10.5-2.5-.9-.9 5.3-30.5 6.3-30.5.6 0 13.6 2.5 29 5.6 15.3 3 28.2 5.2 28.6 4.7.4-.4 2.6-10.5 4.9-22.3 4.7-24.2 4.9-25 6-25 .4 0 7.5 1.4 15.6 3zm11.7 128.2c-3.4 17.2-5.8 31.5-5.4 31.9.4.3 9.3 2.3 19.7 4.4 29.3 5.9 39.2 5.1 49.3-4 12.6-11.3 13.6-31.2 2.2-42.6-8.7-8.7-20.7-13.4-46.5-18.4l-13-2.5-6.3 31.2zm-15.7 79c-1.1 4.7-15.4 77.2-15.2 77.4.8.6 44.6 8.5 49.8 9 3.6.3 10.1.1 14.5-.6 14.4-2.1 23.6-8 29-18.7 2.7-5.5 2.9-6.5 2.9-18.3 0-12-.1-12.7-3-17.8-3.5-6.4-11.9-14.3-18.6-17.8-9.4-4.7-15.1-6.4-34.7-10.4l-21.9-4.5c-1.7-.4-2.4 0-2.8 1.7z"/></svg>