<svg width="800" height="800" viewBox="0 0 800 800" xmlns="http://www.w3.org/2000/svg">
<path d="M52.0625 28.125L52.0625 228.989C63.5 229.611 128 210.5 219.464 210.5C245.62 205.513 309.5 188.311 339 161.286C365 142.5 398.509 137.5 424.75 137.5C472.566 137.5 496.897 150.534 507.658 153.898L517.838 157.077L514.06 283.869C582.583 280.122 653.807 273.45 732.062 263.809C722.568 262.503 715.254 256.038 710.562 249.002C705.309 256.88 696.773 264.062 685.562 264.062C674.351 264.062 665.815 256.88 660.562 249.002C655.309 256.88 646.773 264.062 635.562 264.062C624.351 264.062 615.815 256.88 610.562 249.002C605.309 256.88 596.773 264.062 585.562 264.062C572.304 264.062 562.77 254.022 558.005 244.659C553.239 235.297 550.892 224.859 549.289 214.691C547.817 205.355 547.128 196.266 546.792 189.062H546.5V179.044C546.485 177.837 546.485 176.63 546.5 175.423V28.125H52.0625ZM574.625 39.0625V160.938H596.5V39.0625H574.625ZM624.625 39.0625V160.938H646.5V39.0625H624.625ZM674.625 39.0625V160.938H696.5V39.0625H674.625ZM724.625 39.0625V160.938H746.5V39.0625H724.625ZM410.556 160.709C388.928 161.025 367.119 167.263 344.492 185.866C300.964 221.647 259.966 228.53 219.464 229.611C180.081 230.663 125.078 236.216 75.5 249.002C75.5 249.002 78.5 261.673 84 278.5C90.3739 298 100.755 321.903 117.286 347.8C150.348 399.592 205.597 455.2 266.595 488.589L272.717 491.941L281.759 552.372C290.552 553.019 299.197 553.53 307.73 553.9L298.355 481.516C202.5 425.5 138.217 347.8 110.77 267.87C121.291 265.058 129.317 262.898 138.217 261.673C214.873 252.073 281.861 268.972 374.085 196.305C384.699 187.941 396.686 184.536 408.933 183.927C410.466 183.851 412 183.817 413.535 183.825C424.294 183.872 435.145 185.85 445.347 188.311C460.649 192.003 475.636 196.842 488.419 200.07L489.094 177.484C469.003 170.891 447.327 163.344 424.75 161.286C421.468 160.983 418.177 160.795 414.881 160.724C413.44 160.693 411.998 160.689 410.556 160.709ZM575.006 189.062C575.325 195.308 575.883 202.764 577.072 210.309C578.425 218.891 580.681 227.203 583.072 231.903C585.464 236.603 585.645 235.938 585.562 235.938C585.479 235.938 585.661 236.603 588.053 231.903C590.443 227.203 592.7 218.891 594.053 210.309C595.24 202.763 595.8 195.308 596.118 189.062H575.006ZM625.006 189.062C625.325 195.308 625.883 202.764 627.072 210.309C628.425 218.891 630.681 227.203 633.072 231.903C635.464 236.603 635.645 235.938 635.562 235.938C635.479 235.938 635.661 236.603 638.053 231.903C640.443 227.203 642.7 218.891 644.053 210.309C645.24 202.763 645.8 195.308 646.118 189.062H625.006ZM675.006 189.062C675.325 195.308 675.883 202.764 677.072 210.309C678.425 218.891 680.681 227.203 683.072 231.903C685.464 236.603 685.645 235.938 685.562 235.938C685.479 235.938 685.661 236.603 688.053 231.903C690.443 227.203 692.7 218.891 694.053 210.309C695.24 202.763 695.8 195.308 696.118 189.062H675.006ZM725.006 189.062C725.325 195.308 725.883 202.764 727.072 210.309C728.425 218.891 730.681 227.203 733.072 231.903C735.464 236.603 735.645 235.938 735.562 235.938C735.479 235.938 735.661 236.603 738.053 231.903C740.443 227.203 742.7 218.891 744.053 210.309C745.24 202.763 745.8 195.308 746.118 189.062H725.006ZM414.331 212.003C405.085 211.847 397.431 213.713 391.492 218.394C294.833 294.555 217.144 281.841 147.3 289.011C173.316 351.289 235.939 416.139 318.064 460.349L324.417 463.77L336.185 554.62C383.072 554.92 428.006 550.748 478.231 541.792L487.56 228.989C470.883 225.484 454.264 219.395 438.752 215.653C429.681 213.466 421.524 212.122 414.331 212.003ZM502.888 565.622C416.181 582.627 344.089 586.542 258.559 578.477L276.012 678.664C359.869 684.164 420.449 682.395 500.019 665.997L502.888 565.622ZM473.527 699.68C432.811 706.469 395.585 709.394 356.261 709.603L362.797 760.058C382.492 764.899 401.156 765.43 417.431 763.034C448.366 758.481 468.656 742.269 472.566 731.875L473.527 699.68ZM305.125 708.499L309.285 736.303C316.872 741.321 324.825 745.76 333.078 749.584L327.863 709.319C320.424 709.131 312.831 708.845 305.125 708.499Z"/>
</svg>
