<svg xmlns="http://www.w3.org/2000/svg"
	 width="223" height="223" viewBox="0 0 222.03 222.03">
	<path d="M47.048,49.264c0,0-6.253,9.383-14.662,10.361c0,0-0.979,9.966-11.142,4.498c-2.71-1.46-3.721-7.625-0.981-11.535
		l2.154-3.135c0,0,5.666-17.59,10.752-22.68c0,0,1.761-8.79,0-12.897c0,0,3.127,1.761,4.102,3.517c0,0-0.387-5.284-1.369-6.26
		c0,0,9.582,5.875,10.17,9.2c0,0,19.354-5.677,35.189,9.582c0,0-6.059-1.563-8.207-0.78c0,0,19.349,10.95,22.872,23.847
		c0,0-6.256-4.111-8.213-3.523c0,0,13.878,12.123,11.337,33.233c0,0,1.569,4.307,17.792,5.087c0,0,25.221,0.198,34.997,14.475
		c0,0,16.226-1.173,28.744,14.074c0,0,11.143,19.357,24.441,16.805c0,0-13.099,6.064-19.357,0.597c0,0,2.352,10.361,36.362,17.401
		c0,0-49.703,19.795-53.965-15.445c-0.662-5.58,1.566-23.265-10.361-19.943c0,0,5.479,18.383-20.528,35.784
		c0,0-6.059,7.034,0.585,22.089c0,0,3.334,10.557-9.771,11.922c0,0-12.129,5.083-17.209,15.835c0,0-4.297,2.146-7.625,2.146
		c0,0-2.344,8.6-6.842,7.234c0,0-12.51-1.17-7.82-6.265l1.761-2.731c0,0-6.059,1.561,0-6.448c0,0,2.932-3.718,14.08-3.522
		c0,0,2.148-4.688,13.098-9.191c0,0,7.436-3.712-1.95-19.352c0,0-4.501-13.488-7.433-15.641c0,0,0.588-7.82-2.346-11.147
		c0,0-19.943,11.526-51.817-16.811l-6.059,5.681c0,0-14.467-0.391-17.789-7.234c0,0-8.6,5.083-5.278,18.376
		c0,0,0.78,4.498-0.195,6.649c0,0,6.646-0.78,5.866,8.021c0,0,0.975,10.745-3.91,8.009c0,0-4.303-2.347-4.69-8.795
		c0,0-1.957-5.669-5.086-7.82c0,0-3.121-3.913,0.783-10.167c0,0,1.566-5.083,1.767-9.965c0,0,1.173-5.675,2.542-6.845
		c0,0-13.687-2.353-14.079,24.624l2.349,0.786c0,0,6.839,12.117-2.154,16.615c0,0-3.13,1.377-4.492-3.522l-0.981-10.557
		c0,0-4.69-8.802-1.174-16.231c0,0,5.078-6.053,6.647-16.225c0,0,0.393-8.012,13.884-5.875c0,0,10.749,3.523,19.157,0.198
		c0,0-0.612-15.899,5.677-24.054C51.555,74.976,58.391,55.124,47.048,49.264z"/>
</svg>