<svg
   width="1218.5122"
   height="1498.2867"
   version="1.1"
   viewBox="0 0 1738.6911 2137.9005"
>
  <path
     d="m 1310.2847,5.5355047 c -32.9999,2.8336488 -61.2986,5.9533613 -62.8855,6.9356923 -1.5922,0.982333 -10.4385,16.143702 -19.6628,33.690735 -10.1849,19.376757 -18.157,31.369837 -20.2998,30.549429 -1.943,-0.744845 -21.1308,-15.128985 -42.6342,-31.963555 l -39.099,-30.608804 -238.73353,0.05397 -238.73355,0.04858 L 602.62267,57.890537 557.00361,101.54492 527.226,73.165254 C 510.85023,57.561293 491.576,39.307202 484.40284,32.608995 L 471.35185,20.4324 340.10803,15.380411 C 267.92285,12.606133 208.12477,11.073264 207.2234,11.974635 c -0.90137,0.901369 -9.81253,37.728008 -19.80316,81.841172 l -18.16235,80.205743 7.18937,36.00084 7.18937,36.00082 -39.05576,41.37128 -39.05579,41.37129 -9.40771,47.84818 c -5.170733,26.31244 -10.066199,50.63324 -10.881213,54.04442 -1.252201,5.27867 4.458276,10.23891 38.181403,33.18337 30.95424,21.06076 38.48364,27.40274 34.30604,28.91941 -2.9416,1.06329 -27.66721,6.16926 -54.94581,11.3454 L 53.175446,513.50886 26.587723,572.03854 0,630.56282 l 23.991561,79.63365 23.996958,79.63362 71.872131,6.14226 c 39.52535,3.37879 72.45505,6.7306 73.17291,7.44847 0.71786,0.71244 -25.40568,16.87234 -58.04932,35.89826 -46.239754,26.96014 -59.328513,35.88209 -59.247551,40.39974 0.05399,3.18988 11.518107,57.98456 25.481251,121.76598 l 25.3841,115.9583 71.5105,8.8787 c 39.33643,4.8793 72.142,9.4995 72.90843,10.2659 0.76644,0.7665 -20.82327,26.6471 -47.98311,57.515 -30.68437,34.8782 -48.94387,57.8982 -48.22601,60.8074 0.63691,2.5746 10.85422,52.544 22.70697,111.0414 l 21.54654,106.3614 -19.64125,79.2235 c -10.80565,43.5735 -19.60884,80.7293 -19.57106,82.5698 0.0378,1.8406 22.33455,11.5667 49.54298,21.6167 33.33989,12.3224 47.75643,18.891 44.22112,20.154 -2.88764,1.0363 -31.08918,4.9009 -62.68033,8.5928 -44.74466,5.23 -57.94137,7.7292 -59.74411,11.3021 -1.2738,2.5208 -12.38709,34.0362 -24.70402,70.0371 l -22.38853,65.4491 29.21628,42.4832 c 16.06274,23.3707 29.21087,43.5465 29.21087,44.8472 0,1.2955 -22.12405,11.9122 -49.16516,23.5867 -27.041108,11.6747 -51.048862,22.7177 -53.358961,24.542 -2.3047,1.8246 -13.930757,37.5716 -25.832081,79.4341 l -21.643681,76.1198 53.979662,0.2591 c 98.535411,0.4751 265.591171,4.5501 270.130401,6.5902 3.3842,1.5221 12.14961,-8.9757 36.02781,-43.1577 17.35273,-24.8391 32.3198,-45.6407 33.25895,-46.2181 0.93916,-0.5831 13.4342,21.6436 27.76977,49.3864 l 26.05877,50.4496 62.34567,0.075 c 34.28984,0.049 166.67792,-2.661 294.19752,-6.0182 l 231.85182,-6.0991 54.1038,-51.9285 c 29.756,-28.5634 55.2589,-51.8909 56.6731,-51.8425 1.414,0.049 26.5769,22.0971 55.9119,48.998 l 53.3373,48.9168 49.6025,1.6788 c 27.2838,0.9228 82.3483,2.4449 122.365,3.3839 l 72.7572,1.7003 17.6875,-50.2069 c 9.7207,-27.6186 24.2019,-68.6984 32.1794,-91.2974 l 14.4975,-41.0906 -42.2458,-38.6564 c -23.2358,-21.2605 -45.6676,-41.6033 -49.8451,-45.2036 l -7.5996,-6.5577 70.0963,1.9053 70.0965,1.9053 7.3349,-24.3479 c 4.0374,-13.3909 13.3048,-44.5773 20.6076,-69.2975 7.2973,-24.7202 13.9199,-47.0764 14.7187,-49.6778 1.0849,-3.5299 -12.0202,-13.8768 -51.4159,-40.5996 -46.6824,-31.6666 -51.8693,-35.9521 -44.3076,-36.6269 4.7068,-0.421 39.5741,-2.5043 77.475,-4.6309 37.9005,-2.132 69.5781,-4.5392 70.3877,-5.3488 0.8095,-0.8098 7.3404,-35.5366 14.5135,-77.1617 l 13.0404,-75.6935 -32.0067,-103.7817 c -17.6065,-57.0832 -33.1025,-105.7463 -34.4358,-108.1374 -2.4828,-4.4421 -5.0086,-5.4892 -59.1394,-24.4989 l -31.2189,-10.9622 36.3949,-38.597 36.3894,-38.5916 -20.6668,-121.2856 c -11.3669,-66.70675 -20.8717,-121.3773 -21.12,-121.49064 -4.9116,-2.22914 -121.307,-78.01979 -122.3058,-79.63362 -0.7825,-1.26841 14.5677,-8.47935 34.1172,-16.02497 19.5441,-7.55101 44.6691,-17.26097 55.8363,-21.5843 l 20.2999,-7.85326 44.6043,-83.44961 44.6043,-83.4496 -41.4037,-81.53351 c -22.7664,-44.84181 -54.881,-107.69484 -71.3594,-139.67457 l -29.9611,-58.15188 60.1059,-33.62598 60.1002,-33.63135 26.3125,-125.70605 26.3125,-125.706061 -7.4593,-1.997048 c -12.4625,-3.329754 -212.7235,-11.4960608 -214.5585,-8.7433732 -0.9284,1.3979336 -19.8409,26.3664272 -42.0189,55.4855392 -26.5825,34.899758 -41.0042,51.615593 -42.3051,49.046413 -1.0902,-2.14278 -8.3876,-28.358078 -16.2193,-58.254422 -13.7796,-52.6033138 -14.4705,-54.34128495 -21.4872,-53.99584968 -3.9886,0.19970476 -34.2466,2.67712328 -67.2464,5.50537488 m 77.5718,81.0963258 c 9.7046,35.887491 18.2811,67.111601 19.0583,69.389301 0.8473,2.49361 21.3846,-22.25898 51.7235,-62.345658 27.6779,-36.567564 50.7196,-66.987456 51.2055,-67.602761 1.3547,-1.700191 184.1601,7.799282 186.0277,9.66679 0.9012,0.901369 -8.6576,51.210777 -21.2336,111.802279 l -22.8635,110.16687 -63.1769,35.15343 c -34.7485,19.33359 -63.1769,36.36787 -63.1769,37.85217 0,1.4843 32.2928,66.24261 71.7643,143.91156 39.4768,77.66354 71.4942,142.04943 71.1543,143.06955 -3.2116,9.6344 -80.1897,150.19418 -82.8505,151.27907 -1.9378,0.78801 -32.8865,12.73793 -68.7687,26.54994 -35.8875,13.81201 -66.14,26.01019 -67.225,27.10587 -1.0902,1.09568 31.3105,23.36545 72.0017,49.489 40.6913,26.12353 74.5116,48.96004 75.1591,50.74661 0.6478,1.78653 9.5859,52.18232 19.8572,111.99122 17.7413,103.2366 18.4378,109.0658 13.8174,115.1649 -2.6771,3.5299 -22.1617,24.5744 -43.2927,46.7687 l -38.4243,40.3511 54.3737,18.8263 54.3683,18.8207 31.2618,99.696 31.2619,99.6904 -10.9621,66.2317 c -6.029,36.4273 -11.6638,67.3709 -12.5167,68.7632 -0.858,1.3926 -40.0057,4.5771 -86.9956,7.0815 -46.9901,2.5044 -91.0817,5.2571 -97.9796,6.1152 l -12.549,1.5653 66.194,44.9229 c 36.4056,24.7039 68.0454,45.9915 70.3123,47.303 3.4003,1.9645 1.004,12.8836 -13.7525,62.6209 -9.8289,33.1294 -18.2109,60.4404 -18.6212,60.6887 -0.4102,0.2482 -32.7192,-0.6423 -71.7913,-1.9809 -39.072,-1.3385 -78.079,-2.078 -86.6826,-1.6408 l -15.6363,0.7989 62.9502,57.5797 c 34.6244,31.6668 62.3996,59.0694 61.7249,60.8937 -0.6747,1.8243 -12.684,35.9361 -26.6957,75.8123 -14.0064,39.8707 -26.4204,73.5613 -27.5808,74.8676 -1.1659,1.3061 -51.4645,1.4251 -111.7753,0.2701 l -109.6648,-2.0997 -43.3845,-39.4175 c -23.8621,-21.6813 -50.7522,-46.1427 -59.7604,-54.352 l -16.3758,-14.9295 -58.4595,55.9714 -58.4595,55.9713 -26.9548,1.6734 c -26.15054,1.6245 -491.64618,13.5421 -524.82956,13.4395 l -16.51613,-0.054 -31.78005,-61.3688 -31.78004,-61.3688 -9.00831,12.7974 c -4.94944,7.0382 -21.84878,31.0676 -37.54449,53.3967 l -28.54159,40.5941 -146.14072,-1.085 c -80.37308,-0.5937 -146.939541,-1.5437 -147.916476,-2.0996 -0.982332,-0.5613 4.57162,-23.5651 12.343915,-51.1138 7.766896,-27.5535 15.431242,-54.8323 17.02888,-60.629 2.860637,-10.4063 3.621673,-10.8488 62.318681,-36.2437 32.68142,-14.1414 59.42568,-26.7983 59.42568,-28.1207 0,-1.3222 -14.85912,-24.1752 -33.02687,-50.7736 l -33.03224,-48.3717 20.70453,-59.3933 20.70992,-59.388 78.06838,-9.467 c 42.93652,-5.203 78.39221,-9.7909 78.79702,-10.1902 0.39942,-0.405 1.15506,-4.631 1.6786,-9.3917 l 0.94455,-8.6573 -62.34566,-23.4411 c -34.28985,-12.8889 -62.18915,-24.6393 -62.00025,-26.1128 0.19432,-1.4734 8.58731,-36.0386 18.65892,-76.8107 l 18.30806,-74.1336 -20.9744,-102.7561 c -11.53431,-56.5112 -21.58431,-104.8398 -22.33456,-107.3873 -0.88518,-3.001 19.17707,-28.0073 56.92667,-70.9654 48.82512,-55.5665 57.42322,-66.6744 52.97574,-68.4124 -2.92541,-1.1388 -40.54546,-6.2826 -83.60613,-11.4209 -43.06607,-5.1384 -78.50017,-9.4617 -78.74307,-9.602 -0.24828,-0.135 -10.35766,-45.9214 -22.46408,-101.74153 -12.10643,-55.82042 -22.653003,-104.27852 -23.441026,-107.68431 -1.262997,-5.45139 8.198686,-11.83114 79.617436,-53.64501 44.57735,-26.10194 79.91969,-47.84818 78.53256,-48.33395 -1.38174,-0.48037 -45.06852,-4.52843 -97.07812,-8.99211 -52.0096,-4.46338 -95.010893,-8.63558 -95.561432,-9.27249 C 62.286303,770.04891 52.59792,738.56031 41.306504,700.71356 L 20.780093,631.896 43.438488,582.02378 c 14.869911,-32.7354 24.531303,-50.53069 28.104401,-51.78829 2.990173,-1.05249 35.720171,-7.59959 72.730321,-14.55687 45.5219,-8.54952 66.4747,-13.62848 64.76373,-15.68491 -1.39255,-1.6732 -24.7796,-18.04899 -51.97182,-36.38945 -35.18583,-23.73248 -49.46742,-34.96992 -49.53759,-38.9802 -0.054,-3.09813 3.48674,-23.86202 7.86405,-46.14258 l 7.9612,-40.50771 40.84232,-43.48707 40.84234,-43.48705 -7.79928,-38.65637 -7.79928,-38.66177 16.03034,-71.0679 16.03577,-71.073304 24.88212,0.07555 c 13.68249,0.04319 68.34762,1.899894 121.46909,4.129032 l 96.58696,4.048068 46.25053,44.0322 46.24516,44.037604 42.74762,-40.58325 c 23.51659,-22.318354 45.23584,-43.335928 48.27457,-46.70932 l 5.52698,-6.131476 233.70316,0.0324 233.70852,0.03779 46.2182,36.21133 c 25.4218,19.916502 47.2221,36.211336 48.4473,36.211336 1.2198,0 11.5182,-17.617204 22.8797,-39.147537 19.7546,-37.431147 21.0662,-39.152926 29.8532,-39.379619 5.052,-0.134938 27.4567,-1.926882 49.7858,-3.988697 22.3293,-2.061818 43.1903,-3.589289 46.3585,-3.389586 4.998,0.313053 8.0962,9.002908 23.4141,65.605716 m -807.68173,111.742903 -70.60374,71.13807 -7.5132,-6.81694 c -4.12904,-3.75661 -29.46456,-26.82521 -56.30057,-51.27016 -47.74564,-43.48705 -48.90609,-44.32366 -54.17397,-38.94781 -13.20751,13.49357 -46.36929,51.82068 -46.36929,53.59643 0,1.07948 24.79038,24.45574 55.09692,51.94483 30.30116,27.48908 55.09154,50.61708 55.09154,51.38892 0,0.77182 -9.52646,12.03625 -21.1741,25.02786 -11.64765,12.997 -35.99544,41.24173 -54.1146,62.77205 -18.11918,21.53033 -34.64608,41.16077 -36.72409,43.6166 -3.26544,3.86456 0.39402,7.82087 26.79282,29.00037 16.81839,13.48817 31.18094,24.23985 31.90959,23.88901 0.73405,-0.34543 20.20797,-23.00383 43.27657,-50.3418 23.0686,-27.34335 48.29076,-56.65677 56.05226,-65.15231 l 14.10889,-15.43664 84.72338,77.03744 c 71.42955,64.95264 85.32793,76.40597 88.59336,73.03258 14.07111,-14.55147 47.83742,-53.23482 47.83742,-54.81626 -0.006,-1.05249 -37.85216,-36.25991 -84.10811,-78.23568 -46.25595,-41.98119 -83.77345,-76.7298 -83.36865,-77.22096 0.40482,-0.48578 31.67749,-31.92041 69.49186,-69.84812 L 707.45687,183.76932 681.22539,155.503 c -14.42733,-15.54999 -27.18145,-28.27172 -28.33648,-28.27172 -1.16046,0 -33.88506,32.01215 -72.71414,71.14347 m 221.8882,13.27228 c -9.49406,1.38174 -21.89196,4.01567 -27.54847,5.8454 -12.74872,4.12364 -43.6328,19.43615 -43.6328,21.6329 0,2.60696 14.83214,27.15984 17.34194,28.70889 1.263,0.78263 10.60055,-2.34248 20.7531,-6.94108 43.70836,-19.80856 103.90587,-16.9749 150.64219,7.08682 11.08631,5.70507 45.79176,29.31881 59.36628,40.39433 l 8.87338,7.23258 12.72171,-12.95925 12.7218,-12.96461 -8.3984,-8.77081 c -4.6202,-4.8253 -17.60104,-15.1074 -28.8439,-22.85811 -38.19219,-26.32324 -74.0149,-41.0906 -112.72524,-46.47724 -25.56761,-3.5515 -36.48661,-3.5407 -61.27159,0.0701 m 294.67793,208.68071 c -8.7331,5.0088 -14.816,10.35765 -13.9848,12.29533 0.8096,1.8891 6.8008,15.32869 13.3047,29.86396 6.5039,14.54066 14.4489,36.6863 17.655,49.20833 5.5701,21.78403 12.9538,86.45057 10.3522,90.66597 -0.6854,1.10646 -2.0186,14.37873 -2.9578,29.49693 -0.9445,15.11278 -4.0642,38.91544 -6.9303,52.88936 l -5.2193,25.4111 10.3199,2.70409 c 27.4676,7.18937 25.627,7.48624 28.8709,-4.68496 4.102,-15.39346 11.8958,-61.10966 11.8958,-69.79412 v -7.14079 l 98.5949,2.12657 c 90.2772,1.94849 98.5893,1.72719 98.5893,-2.62853 0,-4.30715 -9.0405,-4.74973 -96.711,-4.74973 h -96.7111 l -1.6409,-39.87079 c -1.8512,-44.90119 -7.076,-73.75043 -20.019,-110.43672 -7.5564,-21.41159 -27.1005,-64.33191 -29.2594,-64.24555 -0.3779,0.0115 -7.6482,4.01568 -16.1491,8.88955 M 69.73475,621.64089 c 0,3.7728 11.922915,4.35032 89.89413,4.35032 49.44043,0 89.88876,-1.09568 89.88876,-2.43963 0.006,-2.44503 -90.14784,-6.23943 -148.61275,-6.25023 -25.77811,-0.0115 -31.17014,0.74484 -31.17014,4.33954 m 185.58511,1.11186 c 0,2.5206 205.20476,7.65895 227.40977,5.69428 6.25562,-0.55593 11.90672,-2.63934 12.56521,-4.63098 0.93917,-2.86063 -24.22365,-3.62167 -119.39107,-3.62167 -67.82947,0 -120.58391,1.11726 -120.58391,2.55837 m 246.47888,1.78656 c 0,3.7728 11.92291,4.35032 89.89413,4.35032 49.44043,0 89.89414,-1.09568 89.89414,-2.43963 0,-2.72569 -78.60272,-6.23404 -139.91748,-6.25022 -33.51263,-0.006 -39.87079,0.68548 -39.87079,4.33953 m 185.5851,1.4519 c 0,1.74338 11.84736,2.90381 29.72365,2.90381 16.3488,0.006 69.84809,0.869 118.8891,1.92149 81.94372,1.75416 89.17089,1.52208 89.17089,-2.9092 0,-4.40971 -10.01223,-4.81451 -118.88912,-4.81451 -77.32893,0 -118.89452,1.0147 -118.89452,2.89841 m 246.47889,1.45191 c 0,3.7728 11.92292,4.35032 89.89417,4.35032 49.4404,0 89.8941,-1.10646 89.8941,-2.45043 0,-3.04954 -66.8147,-6.22861 -131.21683,-6.23941 -41.24173,-0.0115 -48.57144,0.64228 -48.57144,4.33952 m 432.06947,2.89842 c 0,3.77281 11.9175,4.35033 89.8941,4.35033 49.4404,0 89.8887,-1.10648 89.8887,-2.46123 0,-3.52993 -52.4576,-6.23943 -120.7891,-6.23943 -50.509,0 -58.9937,0.6261 -58.9937,4.35033 m 185.585,1.4519 c 0,1.6732 9.181,2.89843 21.7464,2.89843 12.5651,0 21.7514,-1.22523 21.7514,-2.89843 0,-1.6786 -9.1863,-2.90381 -21.7514,-2.90381 -12.5654,0 -21.7464,1.22521 -21.7464,2.90381 m -895.49241,95.55603 c -8.47934,1.34398 -16.17068,3.20068 -17.08825,4.11824 -1.45729,1.4573 3.68645,33.41548 5.69969,35.4287 0.41021,0.41021 11.83117,-0.60451 25.3733,-2.26151 62.36726,-7.60498 149.40077,12.82969 225.24001,52.88938 l 26.62549,14.06569 9.14326,-16.20847 c 7.31891,-12.97002 8.3714,-16.74822 5.27328,-18.93957 -2.13198,-1.50588 -20.83947,-10.98915 -41.57097,-21.06616 -41.22016,-20.04063 -87.78914,-36.08719 -126.14327,-43.47086 -28.89782,-5.56475 -90.51483,-8.05836 -112.55254,-4.55544 m -176.06944,98.00108 c -17.35272,21.87576 -40.45911,68.79019 -48.20441,97.86613 -8.95433,33.64216 -8.96513,100.43532 -0.0162,133.39202 7.49163,27.5916 17.628,53.645 20.86645,53.645 2.41803,0 29.49693,-11.232 31.21331,-12.943 0.53976,-0.5398 -2.93619,-12.6732 -7.72911,-26.9656 -25.78889,-76.98886 -13.66088,-158.95959 32.51409,-219.7454 l 13.12655,-17.27716 -12.02007,-12.32231 c -6.60644,-6.77919 -13.02939,-12.32233 -14.26539,-12.32233 -1.24142,0 -8.20951,7.50242 -15.48523,16.67265 m 573.91916,37.38256 c -2.5584,6.15306 -11.4965,27.4999 -19.8679,47.43798 -8.3661,19.9327 -25.3086,62.99338 -37.64708,95.69101 -12.33852,32.6922 -29.38359,74.0581 -37.87373,91.9235 l -15.44205,32.4817 16.10592,9.0893 c 12.89445,7.2757 16.65646,8.3175 18.84241,5.2193 10.54658,-14.9616 27.52683,-55.9497 80.00063,-193.0875 2.5908,-6.77916 5.5864,-12.32232 6.655,-12.32232 3.8322,0 112.9412,113.70762 146.686,152.87132 18.9395,21.9783 35.3099,40.6156 36.3786,41.4144 1.0687,0.7935 8.6143,-3.5299 16.7698,-9.6182 l 14.8268,-11.0701 -13.8445,-16.4783 c -36.4974,-43.4493 -85.5331,-96.44665 -133.2895,-144.06274 l -52.517,-52.36586 6.8493,-15.51219 c 3.7621,-8.53332 6.8386,-16.32722 6.8332,-17.32034 -0.012,-1.55987 -12.6785,-7.36209 -29.7236,-13.61771 -3.9348,-1.4411 -6.1531,0.68548 -9.7424,9.32675 m -489.38462,357.61729 -10.35226,14.4112 12.25216,8.4091 c 29.42136,20.1864 70.40943,36.9616 110.84694,45.3654 27.31099,5.678 79.96827,6.4985 104.60751,1.6247 27.5269,-5.4407 70.9384,-20.6831 78.99675,-27.7375 0.78263,-0.6855 -13.11034,-30.069 -15.48521,-32.757 -0.45338,-0.5127 -6.35819,1.8946 -13.12115,5.3489 -6.76838,3.449 -24.67703,9.4132 -39.80062,13.2507 -65.04978,16.4999 -136.9543,4.8145 -197.79948,-32.1471 -9.21342,-5.5971 -17.4337,-10.1742 -18.27031,-10.1742 -0.84199,0 -6.18543,6.4824 -11.87433,14.4058 m 766.64512,38.9424 c -12.4735,3.3842 -13.0186,3.9833 -12.3763,13.5206 2.3425,34.7541 1.4519,87.7136 -1.7325,102.7669 -5.1708,24.4827 -16.7753,60.23 -26.5284,81.7494 l -8.2959,18.2919 h -208.9667 c -207.02909,0 -208.96138,0.054 -208.96138,5.8023 0,5.743 1.93229,5.7969 206.11688,5.7969 h 206.117 l -13.6555,25.0493 c -10.8326,19.8735 -12.8297,25.546 -9.656,27.4513 2.1967,1.3171 9.3969,5.6889 16.0034,9.7208 l 12.0038,7.3244 11.5559,-19.5496 c 6.3528,-10.7517 14.9995,-26.3989 19.2148,-34.7701 l 7.659,-15.2261 h 20.2512 c 18.3134,0 20.2456,-0.5507 20.2456,-5.7969 0,-5.1655 -1.9322,-5.8023 -17.7089,-5.8023 -15.7658,0 -17.466,-0.5558 -15.5176,-5.0736 9.6614,-22.3669 25.1952,-73.7935 29.1191,-96.4196 4.9764,-28.6818 4.4044,-90.2395 -1.0147,-108.7365 -2.9577,-10.1094 -6.1261,-10.9189 -23.8728,-6.0991 M 307.51837,1481.4239 c 0,5.7105 1.93228,5.7969 130.48818,5.7969 128.5559,0 130.48818,-0.088 130.48818,-5.7969 0,-5.7159 -1.93228,-5.8023 -130.48818,-5.8023 -128.5559,0 -130.48818,0.086 -130.48818,5.8023 m 272.57544,0 c 0,5.7159 1.93227,5.7969 137.73693,5.7969 135.81004,0 137.74231,-0.081 137.74231,-5.7969 0,-5.7214 -1.93227,-5.8023 -137.74231,-5.8023 -135.80466,0 -137.73693,0.081 -137.73693,5.8023 m 788.73679,0 c 0,5.7159 1.9323,5.7969 139.1889,5.7969 137.2564,0 139.1887,-0.081 139.1887,-5.7969 0,-5.7214 -1.9323,-5.8023 -139.1887,-5.8023 -137.2566,0 -139.1889,0.081 -139.1889,5.8023 m -235.1983,213.8353 c -53.3698,59.9112 -113.9829,107.8135 -170.15389,134.4605 -13.89297,6.5958 -25.6162,12.29 -26.04798,12.6625 -2.1158,1.7974 12.18738,33.4101 15.11279,33.4101 6.42833,0 51.95558,-23.5113 76.75678,-39.6389 40.5833,-26.388 69.0385,-50.1797 109.1468,-91.2488 40.0488,-41.0096 54.9296,-58.7402 52.5332,-62.6101 -0.7989,-1.3007 -7.2542,-6.5256 -14.3356,-11.6099 l -12.8783,-9.2511 -30.1338,33.8257 m -594.8612,47.5188 c -7.57258,4.9549 -13.77422,10.0716 -13.77422,11.378 0,4.8088 34.31684,45.3328 52.38203,61.8597 34.58671,31.6289 81.70084,58.8859 127.40625,73.7019 22.60442,7.3296 62.99336,15.0696 78.61352,15.0696 h 11.28062 v -18.4323 -18.4322 l -19.92732,-1.8513 c -22.12404,-2.0563 -61.28236,-12.6461 -87.41131,-23.6461 -42.02976,-17.6927 -88.77147,-54.1253 -117.74484,-91.7779 -7.1732,-9.3212 -13.94157,-16.9315 -15.04264,-16.9102 -1.10647,0.016 -8.20409,4.0861 -15.78209,9.0408"
     stroke="none"
     fill-rule="evenodd"
     fill="black"
     id="path1"
     style="stroke-width:5.39743" />
</svg>
