<svg width="302" height="308" viewBox="0 0 302 308" fill="none" xmlns="http://www.w3.org/2000/svg">
<path d="M129.115 160.364L142.992 173.981L50.3695 268.367L30.7354 274.38L36.4819 254.761L129.115 160.364Z" stroke-width="9"/>
<path d="M207.857 104.935C228.879 129.791 243.94 155.699 249.202 178.77C254.417 201.631 249.984 221.211 232.696 234.98C205.344 256.765 177.645 263.158 151.824 258.363C125.865 253.542 101.218 237.297 80.4255 212.713C59.7384 188.254 48.7432 160.128 48.9871 133.081C49.23 106.127 60.6273 79.8929 85.406 58.9359C102.378 44.5815 122.065 43.5273 143.128 52.3031C164.436 61.1806 186.812 80.0517 207.857 104.935Z" stroke-width="9"/>
<path d="M221.575 93.935C242.294 118.433 253.781 146.518 255.776 171.976C257.773 197.443 250.288 219.901 233.584 234.029C216.88 248.157 193.491 251.811 168.708 245.616C143.934 239.423 118.145 223.434 97.4255 198.936C76.706 174.439 65.2192 146.354 63.2235 120.895C61.2272 95.4283 68.7123 72.9704 85.4164 58.8426C102.12 44.7148 125.509 41.0605 150.292 47.2557C175.066 53.4488 200.855 69.4373 221.575 93.935Z" stroke-width="9"/>
</svg>
