<svg width="658" height="725" viewBox="0 0 658 725" xmlns="http://www.w3.org/2000/svg">
<path d="M618.981 0.304656C618.223 0.285579 617.464 0.32738 616.712 0.429656C610.267 1.28434 601.984 6.47653 598.952 18.3359C590.753 50.4078 579.014 81.1203 572.269 97.6953C572.403 97.864 572.547 98.0234 572.681 98.1922C582.259 110.311 590.325 125.317 597.045 141.611C598.217 144.448 599.327 147.33 600.416 150.233C608.653 149.405 617.202 147.431 626.119 144.022C634.003 123.025 637.141 107.337 637.181 88.9828C637.22 68.9578 633.478 44.964 627.631 8.63278C626.933 4.29372 625.562 2.85153 623.975 1.76716C622.783 0.954657 621.108 0.370281 618.984 0.309344L618.981 0.304656ZM17.4156 10.0453C11.114 10.0609 5.52498 11.0797 2.57186 12.3218C1.05623 12.9593 0.67342 13.0718 0.499982 13.0812C-0.293768 35.0765 5.82186 61.2343 16.5578 82.6078C27.3312 104.056 42.7015 120.023 57.0891 124.975C91.2953 136.741 142.491 139.928 198.808 100.512C170.673 90.2781 147.375 85.2218 125.883 77.9562C98.8625 68.8218 74.325 54.325 53.3578 22.0609C51.164 18.6859 34.9359 10.7593 20.1547 10.1031C19.2328 10.0625 18.3172 10.0437 17.4156 10.0453ZM376.564 96.6593C369.486 96.6656 362.445 96.6984 355.448 96.7609C317.202 97.1015 280.198 98.3078 244.131 100.277L236.169 107.136C232.034 110.698 227.789 114.132 223.442 117.433C330.733 125.241 434.462 127.808 552.005 117.48C551.541 116.862 551.078 116.219 550.614 115.633C543.617 106.78 536.752 102.117 532.114 100.902C477.789 97.9906 426.127 96.6218 376.564 96.6593ZM183.423 141.983C168.647 149.008 154.134 153.752 140.134 156.702C150.019 170.15 161.166 183.475 173.411 195.67C205.755 227.884 244.431 251.225 284.692 250.917L588.731 227.769C587.463 205.316 581.116 176.753 571.044 152.336C569.923 149.634 568.747 146.955 567.516 144.302C428.677 157.505 309.1 152.905 183.378 142.539L183.425 141.984L183.423 141.983ZM52.1265 152.944L13.4906 153.969C13.1875 154.406 12.639 155.256 11.8422 157.312C10.1547 161.672 8.70467 169.475 8.3578 179.094C7.66561 198.334 10.9515 224.844 17.7734 250.978C24.5969 277.116 35.0078 303.041 47.4219 321.65C59.6312 339.956 72.8313 349.894 85.1875 350.859L101.68 349.359L96.2734 298.57C72.4125 291.228 60.4125 280.228 54.3906 257.023C52.1281 231.728 77 212.505 103.37 215.023C129.692 219.728 152.352 232.094 152.352 257.023C152.352 273.728 140.305 288.608 124.184 295.039L129.692 346.812L278.062 333.323C246.491 327.956 217.68 299.886 202.094 254.317C184.459 243.602 168.206 230.177 153.569 215.602C136.194 198.298 120.967 179.262 108.194 160.533C87.3109 161.137 68.2719 158.002 52.1281 152.945L52.1265 152.944ZM634.189 171.156C626.064 174.103 617.659 176.21 609.105 177.444C615.022 199.698 618.127 222.123 617.287 241.381L616.745 253.844L567.703 257.578C571.387 273.655 574.536 289.85 577.145 306.136L628.509 301.467C657.442 272.186 661.608 242.539 654.1 213.323C650.327 198.639 643.166 184.245 634.184 171.156H634.189ZM103.367 243.148C89.9125 240.228 80.9125 250.978 82.5125 257.023C82.5125 262.95 90.1625 270.891 103.367 270.891C116.573 270.891 120.912 263.228 124.223 257.022C124.223 251.092 117.412 245.728 103.367 243.147V243.148ZM539.128 259.753L390.347 271.081C431.514 362.094 438.836 451.034 426.878 537.466C462.211 541.334 496.706 543.544 521.211 538.922C535.098 536.3 552.412 533.228 560.412 530.728C561.63 521.728 561.709 511.433 561.63 497.308C561.195 419.314 558.234 340.63 539.127 259.753H539.128ZM241.378 272.381C254.277 293.134 270.284 303.687 283.342 305.709C292.842 307.178 300.998 304.986 308.511 298.448C313.864 293.792 318.886 286.553 322.534 276.245L285.659 279.052L285.195 279.056C270.016 279.205 255.386 276.775 241.383 272.384L241.378 272.381ZM360.445 273.358L352.458 273.964C347.791 293.589 339.058 309.147 326.973 319.664C321.551 324.384 315.312 328.075 308.564 330.555L381.205 323.948C375.483 307.198 368.586 290.342 360.445 273.358ZM133.059 374.753L105.048 377.297C112.528 473.934 110.189 572.078 94.8984 672.375L122.7 676.614C138.356 573.911 140.72 473.43 133.059 374.753ZM557.423 556.245L541.225 562.464C516.937 571.789 484.042 570.37 458.772 568.312L438.783 566.683L444.064 586.031L456.939 633.194C450.978 646.456 446.044 656.717 444.189 668.756C442.197 681.706 444.898 695.175 451.986 711.319C454.686 717.47 458.755 719.123 461.48 720.3C464.202 721.475 466.577 722.023 469.12 722.494C474.203 723.431 479.895 723.837 486.456 724.005C499.577 724.342 515.894 723.575 532.275 721.958C548.653 720.341 564.936 717.908 578.119 714.578C584.712 712.914 606.302 705.072 611.5 702.5C613.948 701.292 594.888 646.191 588.614 638.645C579.848 628.102 570.855 619.884 567.013 616.52L557.419 556.247L557.423 556.245ZM534.887 593.612L537.7 611.278L482.055 618.403L476.408 597.716C494.386 598.634 514.856 598.334 534.889 593.611L534.887 593.612ZM551.397 640.37C556.982 645.402 562.195 650.833 566.994 656.62C574.959 666.203 580.395 677.297 581.55 683.88C579.187 684.898 575.936 686.122 571.237 687.308C560.308 690.067 544.909 692.448 529.513 693.97C514.114 695.491 498.559 696.183 487.181 695.892C482.15 695.761 478.409 695.364 475.728 694.959C471.775 684.861 471.069 679.017 471.989 673.037C472.853 667.428 476.208 659.437 480.822 648.944L551.397 640.373V640.37Z"/>
</svg>
