<svg xmlns="http://www.w3.org/2000/svg" viewBox="0 0 24 24" width="24" height="24" fill="none">
<path d="M16.6081 14.1586L15.3198 12.8908L12.7433 15.4263L14.0316 16.694L16.6081 14.1586ZM18.8899 21.4749C19.6014 22.175 20.7549 22.175 21.4664 21.4749C22.1779 20.7747 22.1779 19.6396 21.4664 18.9394L18.8899 21.4749ZM14.0316 16.694L18.8899 21.4749L21.4664 18.9394L16.6081 14.1586L14.0316 16.694Z" fill="#555555"/>
<path d="M10.7045 6.20317C12.7692 6.6215 13.9028 8.03584 14.004 9.98803" stroke="#555555" stroke-width="1.19522" stroke-linecap="round"/>
<path d="M10.0972 3.19522C13.8983 3.19522 16.9798 6.22757 16.9798 9.96813C16.9798 13.7087 13.8983 16.741 10.0972 16.741C6.29603 16.741 3.21458 13.7087 3.21458 9.96813C3.21458 6.22757 6.29603 3.19522 10.0972 3.19522Z" stroke="#555555" stroke-width="2.39044"/>
</svg>
