<svg width="200" height="200" viewBox="0 0 200 200" fill="none" xmlns="http://www.w3.org/2000/svg">
<path fill-rule="evenodd" clip-rule="evenodd" d="M70 88.9103V70.1764L130 54V72.7339L70 88.9103ZM130 100.355L70 116.532V97.6448L130 81.4685V100.355ZM130 127.824L70 144V125.266L130 109.09V127.824Z"/>
<path fill-rule="evenodd" clip-rule="evenodd" d="M110.525 0.563842C165.505 6.37341 205.246 55.6284 199.436 110.525C193.627 165.505 144.372 205.246 89.4754 199.436C34.4951 193.627 -5.24572 144.372 0.563842 89.4754C6.37341 34.4951 55.6284 -5.24572 110.525 0.563842ZM108.335 21.4446C65.1426 16.8138 25.9912 48.4717 21.4446 91.6645C16.8138 134.857 48.4717 174.009 91.6645 178.555C134.857 183.186 174.009 151.528 178.555 108.335C183.186 65.1426 151.528 25.9912 108.335 21.4446Z"/>
</svg>
