<svg xmlns="http://www.w3.org/2000/svg" xmlns:xlink="http://www.w3.org/1999/xlink" 
	 viewBox="0 0 58.844 58.844">
<path d="M58.551,9.079l-4.393-4.393l-2.207-2.207l0,0l-2.185-2.185c-0.391-0.391-1.023-0.391-1.414,0
	s-0.391,1.023,0,1.414l1.463,1.463l-7.794,7.47l-2.088-2.088c0,0-0.001-0.001-0.001-0.001l-2.294-2.294
	c-0.391-0.391-1.023-0.391-1.414,0s-0.391,1.023,0,1.414l1.589,1.589L13.151,33.921c-0.391,0.391-0.391,1.023,0,1.414l1.899,1.899
	l-1.967,1.967c-0.188,0.188-0.293,0.442-0.293,0.707s0.105,0.52,0.293,0.707l1.731,1.73l-1.967,1.967l1.686,1.686l1.967-1.967
	l1.73,1.73c0.195,0.195,0.451,0.293,0.707,0.293s0.512-0.098,0.707-0.293l1.967-1.967l1.899,1.899
	c0.195,0.195,0.451,0.293,0.707,0.293s0.512-0.098,0.707-0.293l24.661-24.661l1.589,1.589c0.195,0.195,0.451,0.293,0.707,0.293
	s0.512-0.098,0.707-0.293c0.391-0.391,0.391-1.023,0-1.414l-2.296-2.296L47.85,16.47L55.644,9l1.493,1.493
	c0.195,0.195,0.451,0.293,0.707,0.293s0.512-0.098,0.707-0.293C58.942,10.102,58.942,9.469,58.551,9.079z M18.936,43.641
	l-3.732-3.732l1.26-1.26l3.732,3.732L18.936,43.641z M24.216,43.572l-1.897-1.897c0,0-0.001-0.001-0.001-0.001l-5.147-5.147
	c0,0-0.001-0.001-0.001-0.001l-1.898-1.898l2.452-2.452l2.209,2.209c0.146,0.146,0.338,0.22,0.53,0.22s0.384-0.073,0.53-0.22
	c0.293-0.293,0.293-0.768,0-1.061l-2.209-2.209l2.783-2.783l4.472,4.473c0.146,0.146,0.338,0.22,0.53,0.22
	c0.191,0,0.384-0.073,0.53-0.22c0.293-0.293,0.293-0.768,0-1.061l-4.472-4.473l2.169-2.169l2.209,2.21
	c0.146,0.146,0.338,0.22,0.53,0.22s0.384-0.073,0.53-0.22c0.293-0.293,0.293-0.768,0-1.061l-2.209-2.21l2.783-2.783l4.472,4.472
	c0.146,0.146,0.338,0.22,0.53,0.22s0.384-0.073,0.53-0.22c0.293-0.293,0.293-0.768,0-1.061l-4.472-4.472l2.169-2.169l2.21,2.21
	c0.146,0.146,0.338,0.22,0.53,0.22s0.384-0.073,0.53-0.22c0.293-0.293,0.293-0.768,0-1.061l-2.21-2.21l2.783-2.783l4.473,4.472
	c0.146,0.146,0.338,0.22,0.53,0.22s0.384-0.073,0.53-0.22c0.293-0.293,0.293-0.768,0-1.061l-4.473-4.472l2.452-2.452l8.945,8.945
	L24.216,43.572z M54.229,7.585l-7.794,7.469l-2.999-2.999l7.794-7.47l0.592,0.592L54.229,7.585z M12.924,45.299l0.621,0.621
	L1.193,58.272L0,58.844l0.547-1.167L12.924,45.299z"/>
</svg>