<svg width="141" height="39" viewBox="0 0 141 39" fill="none" xmlns="http://www.w3.org/2000/svg">
<path d="M13.6001 22.7998H36.8001V31.8998H13.6001V22.7998Z" fill="white"/>
<path d="M4.9001 10.2999C2.30436 10.2999 0.200098 8.19564 0.200098 5.5999C0.200098 3.00416 2.30436 0.899902 4.9001 0.899902C7.49584 0.899902 9.6001 3.00416 9.6001 5.5999C9.6001 8.19564 7.49584 10.2999 4.9001 10.2999Z" fill="#C5C7C8"/>
<path d="M4.9001 10.2999C2.30436 10.2999 0.200098 8.19564 0.200098 5.5999C0.200098 3.00416 2.30436 0.899902 4.9001 0.899902C7.49584 0.899902 9.6001 3.00416 9.6001 5.5999C9.6001 8.19564 7.49584 10.2999 4.9001 10.2999Z" fill="white" fill-opacity="0.8"/>
<path d="M13.5469 12.7617L12.0537 14.2383L3.45312 5.53809L4.94727 4.06152L13.5469 12.7617Z" fill="#C5C7C8"/>
<path d="M13.5469 12.7617L12.0537 14.2383L3.45312 5.53809L4.94727 4.06152L13.5469 12.7617Z" fill="white" fill-opacity="0.8"/>
<path d="M42.9002 10.1998C45.4959 10.1998 47.6002 8.09554 47.6002 5.4998C47.6002 2.90406 45.4959 0.799805 42.9002 0.799805C40.3045 0.799805 38.2002 2.90406 38.2002 5.4998C38.2002 8.09554 40.3045 10.1998 42.9002 10.1998Z" fill="#C5C7C8"/>
<path d="M42.9002 10.1998C45.4959 10.1998 47.6002 8.09554 47.6002 5.4998C47.6002 2.90406 45.4959 0.799805 42.9002 0.799805C40.3045 0.799805 38.2002 2.90406 38.2002 5.4998C38.2002 8.09554 40.3045 10.1998 42.9002 10.1998Z" fill="white" fill-opacity="0.8"/>
<path d="M44.5425 5.54199L35.8423 14.2422L34.3579 12.7578L43.0581 4.05762L44.5425 5.54199Z" fill="#C5C7C8"/>
<path d="M44.5425 5.54199L35.8423 14.2422L34.3579 12.7578L43.0581 4.05762L44.5425 5.54199Z" fill="white" fill-opacity="0.8"/>
<path fill-rule="evenodd" clip-rule="evenodd" d="M6 33.1001C4.86619 32.5745 3.93245 31.6968 3.33782 30.5977C2.74319 29.4985 2.51948 28.2367 2.7 27.0001C4.7 15.1001 13.5 6.1001 24.1 6.1001C34.7 6.1001 43.5 15.1001 45.4 27.1001C45.9 29.6001 44.5 32.1001 42.2 33.1001C36.5448 35.8504 30.3385 37.2795 24.05 37.2795C17.7615 37.2795 11.5552 35.8504 5.9 33.1001H6Z" fill="#FFDF6F"/>
<path d="M45.4001 27.0001L44.4001 27.3001L45.4001 27.1001V27.0001ZM3.80015 27.2001C5.80015 15.6001 14.2002 7.20009 24.1002 7.20009V5.1001C12.9002 5.1001 3.70014 14.6001 1.70014 26.8001L3.70014 27.2001H3.80015ZM24.1002 7.20009C34.0002 7.20009 42.5001 15.7001 44.4001 27.2001L46.5001 26.9001C44.5001 14.6001 35.3002 5.1001 24.1002 5.1001V7.20009ZM41.7001 32.2001C36.4001 34.8001 30.5001 36.2001 24.2001 36.2001V38.4001C30.8001 38.4001 37.1001 36.9001 42.7001 34.2001L41.7001 32.2001ZM24.2001 36.2001C17.8001 36.2001 11.8001 34.8001 6.40014 32.2001L5.40014 34.1001C11.1001 36.8001 17.4001 38.4001 24.2001 38.4001V36.2001ZM44.4001 27.2001C44.7001 29.3001 43.6001 31.3001 41.7001 32.2001L42.7001 34.2001C44.0443 33.5658 45.1436 32.5086 45.8299 31.1902C46.5161 29.8719 46.7516 28.365 46.5001 26.9001L44.4001 27.3001V27.2001ZM1.70014 26.8001C1.20014 29.8001 2.70015 32.8001 5.50015 34.1001L6.50015 32.1001C4.50015 31.2001 3.50015 29.2001 3.80015 27.1001L1.70014 26.8001Z" fill="#C5C7C8"/>
<path d="M45.4001 27.0001L44.4001 27.3001L45.4001 27.1001V27.0001ZM3.80015 27.2001C5.80015 15.6001 14.2002 7.20009 24.1002 7.20009V5.1001C12.9002 5.1001 3.70014 14.6001 1.70014 26.8001L3.70014 27.2001H3.80015ZM24.1002 7.20009C34.0002 7.20009 42.5001 15.7001 44.4001 27.2001L46.5001 26.9001C44.5001 14.6001 35.3002 5.1001 24.1002 5.1001V7.20009ZM41.7001 32.2001C36.4001 34.8001 30.5001 36.2001 24.2001 36.2001V38.4001C30.8001 38.4001 37.1001 36.9001 42.7001 34.2001L41.7001 32.2001ZM24.2001 36.2001C17.8001 36.2001 11.8001 34.8001 6.40014 32.2001L5.40014 34.1001C11.1001 36.8001 17.4001 38.4001 24.2001 38.4001V36.2001ZM44.4001 27.2001C44.7001 29.3001 43.6001 31.3001 41.7001 32.2001L42.7001 34.2001C44.0443 33.5658 45.1436 32.5086 45.8299 31.1902C46.5161 29.8719 46.7516 28.365 46.5001 26.9001L44.4001 27.3001V27.2001ZM1.70014 26.8001C1.20014 29.8001 2.70015 32.8001 5.50015 34.1001L6.50015 32.1001C4.50015 31.2001 3.50015 29.2001 3.80015 27.1001L1.70014 26.8001Z" fill="white" fill-opacity="0.8"/>
<path fill-rule="evenodd" clip-rule="evenodd" d="M10.5002 30.1998C8.60018 29.4998 7.50019 27.4998 8.10019 25.5998C10.2002 19.0998 16.6002 14.2998 24.1002 14.2998C31.6002 14.2998 38.0002 19.0998 40.1002 25.5998C40.6002 27.4998 39.5002 29.4998 37.7002 30.1998C33.3917 31.9986 28.7691 32.9248 24.1002 32.9248C19.4313 32.9248 14.8087 31.9986 10.5002 30.1998Z" fill="#C5C7C8"/>
<path fill-rule="evenodd" clip-rule="evenodd" d="M10.5002 30.1998C8.60018 29.4998 7.50019 27.4998 8.10019 25.5998C10.2002 19.0998 16.6002 14.2998 24.1002 14.2998C31.6002 14.2998 38.0002 19.0998 40.1002 25.5998C40.6002 27.4998 39.5002 29.4998 37.7002 30.1998C33.3917 31.9986 28.7691 32.9248 24.1002 32.9248C19.4313 32.9248 14.8087 31.9986 10.5002 30.1998Z" fill="#272828"/>
<path d="M29.4 27.4002C31.5539 27.4002 33.3 26.0123 33.3 24.3002C33.3 22.5881 31.5539 21.2002 29.4 21.2002C27.2461 21.2002 25.5 22.5881 25.5 24.3002C25.5 26.0123 27.2461 27.4002 29.4 27.4002Z" fill="#F8C455"/>
<path d="M29.4 27.4002C31.5539 27.4002 33.3 26.0123 33.3 24.3002C33.3 22.5881 31.5539 21.2002 29.4 21.2002C27.2461 21.2002 25.5 22.5881 25.5 24.3002C25.5 26.0123 27.2461 27.4002 29.4 27.4002Z" fill="white"/>
<path d="M18.2999 27.4002C20.4538 27.4002 22.1999 26.0123 22.1999 24.3002C22.1999 22.5881 20.4538 21.2002 18.2999 21.2002C16.146 21.2002 14.3999 22.5881 14.3999 24.3002C14.3999 26.0123 16.146 27.4002 18.2999 27.4002Z" fill="#F8C455"/>
<path d="M18.2999 27.4002C20.4538 27.4002 22.1999 26.0123 22.1999 24.3002C22.1999 22.5881 20.4538 21.2002 18.2999 21.2002C16.146 21.2002 14.3999 22.5881 14.3999 24.3002C14.3999 26.0123 16.146 27.4002 18.2999 27.4002Z" fill="white"/>
<path d="M124.842 37.6424C124.095 37.6424 123.395 37.5826 122.741 37.4628C122.096 37.3522 121.561 37.2094 121.137 37.0343L122.464 32.6388C123.155 32.8507 123.777 32.9659 124.33 32.9843C124.892 33.0028 125.376 32.8737 125.782 32.5973C126.196 32.3209 126.533 31.8509 126.791 31.1874L127.136 30.289L119.52 8.44971H125.712L130.108 24.0413H130.329L134.766 8.44971H141L132.748 31.9753C132.352 33.1179 131.813 34.1132 131.131 34.9609C130.458 35.8179 129.606 36.4768 128.574 36.9375C127.542 37.4075 126.298 37.6424 124.842 37.6424Z" fill="white"/>
<path d="M97.2563 29.6812V1.37305H103.145V12.0162H103.324C103.582 11.4449 103.956 10.8644 104.444 10.2746C104.942 9.67565 105.587 9.17805 106.379 8.78181C107.181 8.37636 108.176 8.17363 109.365 8.17363C110.913 8.17363 112.341 8.57908 113.65 9.38999C114.958 10.1917 116.004 11.4034 116.787 13.0253C117.571 14.6379 117.962 16.6605 117.962 19.0933C117.962 21.4615 117.58 23.4611 116.815 25.0921C116.059 26.714 115.027 27.9442 113.719 28.7827C112.419 29.612 110.963 30.0267 109.351 30.0267C108.208 30.0267 107.236 29.8378 106.434 29.46C105.642 29.0822 104.992 28.6076 104.485 28.0363C103.979 27.4558 103.592 26.8706 103.324 26.2809H103.062V29.6812H97.2563ZM103.02 19.0656C103.02 20.3281 103.195 21.4292 103.546 22.3692C103.896 23.3091 104.402 24.0417 105.066 24.5669C105.729 25.0829 106.536 25.341 107.485 25.341C108.443 25.341 109.254 25.0783 109.918 24.5531C110.581 24.0186 111.083 23.2814 111.424 22.3415C111.774 21.3924 111.949 20.3004 111.949 19.0656C111.949 17.84 111.779 16.7619 111.438 15.8312C111.097 14.9005 110.595 14.1725 109.931 13.6473C109.268 13.122 108.452 12.8594 107.485 12.8594C106.527 12.8594 105.716 13.1128 105.052 13.6196C104.398 14.1264 103.896 14.8452 103.546 15.7759C103.195 16.7066 103.02 17.8032 103.02 19.0656Z" fill="white"/>
<path d="M92.4283 1.37305V29.6812H86.54V1.37305H92.4283Z" fill="white"/>
<path d="M62.4136 29.6812H56L65.7724 1.37305H73.4852L83.2438 29.6812H76.8302L69.7394 7.84189H69.5182L62.4136 29.6812ZM62.0127 18.5542H77.162V23.2261H62.0127V18.5542Z" fill="white"/>
</svg>
