<svg width="770" height="235" viewBox="0 0 770 235" fill="none" xmlns="http://www.w3.org/2000/svg">
<path d="M145.76 4.26997C145.66 4.23997 145.55 4.20998 145.44 4.18998C136.01 1.84998 126.57 0.72998 117.27 0.72998H117.23C64.88 0.74998 17.27 36.25 4.09999 89.36C-11.41 151.91 26.72 215.2 89.27 230.71C98.7 233.05 108.15 234.17 117.45 234.17C169.82 234.17 217.45 198.66 230.62 145.54C246.1 83.11 208.15 19.93 145.76 4.26997ZM221.46 143.27C209.57 191.23 166.79 224.73 117.45 224.73C108.77 224.73 100.05 223.66 91.54 221.55C63.73 214.66 40.28 197.35 25.49 172.81C10.7 148.27 6.35999 119.44 13.26 91.64C25.15 43.69 67.97 10.2 117.3 10.17C125.97 10.17 134.67 11.24 143.25 13.37L143.36 13.4L143.47 13.43C200.67 27.78 235.65 86.03 221.46 143.27Z" fill="black"/>
<path d="M141.68 101.83C138.33 115.24 117.89 108.36 111.25 106.72L117.11 83.26C123.64 84.87 145.03 87.95 141.57 101.82H141.68V101.83ZM138.03 139.73C134.41 154.34 109.81 146.43 101.84 144.45L108.31 118.55C116.28 120.56 141.82 124.48 138.03 139.73ZM164.84 102.03C166.95 87.75 156.09 80.08 141.38 74.99L146.21 55.65L134.31 52.7L129.62 71.53C126.54 70.76 123.35 70.02 120.2 69.32L124.89 50.29L113.13 47.34L108.3 66.68L100.8 65L84.55 60.94L81.43 73.51C81.43 73.51 89.55 75.49 89.98 75.65C92.61 76.18 95.73 79.01 95.48 82.35L82.27 135.3C81.55 137.56 79.14 138.8 76.88 138.08C76.63 138.01 68.3 135.97 68.3 135.97L62.47 149.38L77.78 153.17L86.16 155.35L81.3 174.89L93.06 177.84L97.89 158.5C101.06 159.37 104.18 160.17 107.24 160.91L102.48 180.31L114.24 183.22L119.1 163.72C139.21 167.51 154.25 166 160.62 147.84C165.75 133.23 160.35 124.82 149.8 119.32C157.5 117.55 163.2 112.63 164.84 102.03Z" fill="black"/>
<path d="M338.06 82.01C345.36 82.01 351.67 83.3 356.99 85.89C362.31 88.48 366.72 91.97 370.22 96.38C373.72 100.79 376.3 105.96 377.98 111.89C379.65 117.82 380.49 124.21 380.49 131.05C380.49 141.54 378.55 151.47 374.67 160.82C370.79 170.17 365.51 178.31 358.82 185.23C352.13 192.15 344.22 197.63 335.09 201.65C325.97 205.68 316.08 207.7 305.43 207.7C304.06 207.7 301.67 207.66 298.24 207.59C294.82 207.51 290.9 207.17 286.49 206.56C282.08 205.95 277.4 205.04 272.46 203.82C267.52 202.61 262.84 200.93 258.43 198.8L297.89 32.96L333.25 27.49L319.1 86.35C322.14 84.98 325.18 83.92 328.23 83.16C331.29 82.39 334.56 82.01 338.06 82.01ZM308.41 179.64C313.73 179.64 318.75 178.35 323.47 175.76C328.18 173.18 332.25 169.72 335.67 165.38C339.09 161.05 341.79 156.14 343.77 150.67C345.75 145.19 346.74 139.49 346.74 133.56C346.74 126.26 345.52 120.56 343.09 116.45C340.66 112.35 336.17 110.29 329.63 110.29C327.5 110.29 324.73 110.67 321.3 111.43C317.88 112.19 314.8 113.79 312.06 116.22L297 178.73C297.91 178.88 298.71 179.03 299.39 179.19C300.07 179.34 300.79 179.46 301.56 179.53C302.32 179.61 303.23 179.64 304.3 179.64C305.36 179.64 306.73 179.64 308.41 179.64Z" fill="black"/>
<path d="M434.78 206.79C423.98 206.79 415.5 205.38 409.35 202.57C403.19 199.76 398.78 195.92 396.12 191.05C393.46 186.18 392.16 180.6 392.24 174.28C392.32 167.97 393.19 161.24 394.86 154.09L423.83 32.96L459.19 27.49L427.48 158.88C426.87 161.62 426.53 164.13 426.45 166.41C426.37 168.69 426.79 170.71 427.71 172.45C428.62 174.2 430.18 175.61 432.39 176.67C434.59 177.73 437.67 178.42 441.63 178.72L434.78 206.79Z" fill="black"/>
<path d="M486.11 204.51H452.35L480.86 84.52H514.85L486.11 204.51Z" fill="black"/>
<path d="M539.94 89.99C542.52 89.23 545.38 88.36 548.49 87.37C551.61 86.38 555.11 85.47 558.98 84.63C562.86 83.8 567.19 83.11 571.99 82.58C576.78 82.05 582.22 81.78 588.3 81.78C606.24 81.78 618.56 86.95 625.26 97.29C631.95 107.63 633.09 121.78 628.68 139.72L613.17 204.51H579.18L594.24 141.09C595.15 137.14 595.87 133.3 596.41 129.57C596.94 125.84 596.9 122.57 596.3 119.76C595.69 116.95 594.28 114.67 592.08 112.92C589.87 111.17 586.49 110.3 581.93 110.3C577.52 110.3 573.03 110.76 568.47 111.67L546.34 204.51H512.35L539.94 89.99Z" fill="black"/>
<path d="M684.79 127.86C693.91 120.56 702.5 113.11 710.57 105.5C718.63 97.9 725.55 90.9 731.33 84.51H769.65C761.13 93.94 752.27 103.18 743.07 112.23C733.87 121.28 723.34 130.9 711.47 141.09C714.66 145.05 717.89 149.61 721.17 154.78C724.44 159.95 727.56 165.35 730.52 170.98C733.49 176.61 736.22 182.31 738.73 188.09C741.24 193.87 743.33 199.35 745 204.52H707.13C705.76 200.57 704.05 196.23 702 191.52C699.95 186.81 697.67 182.13 695.16 177.49C692.65 172.85 690.03 168.33 687.29 163.92C684.55 159.51 681.82 155.56 679.08 152.06L666.31 204.53H632.55L673.61 32.98L708.97 27.51L684.79 127.86Z" fill="black"/>
<path d="M526.82 48.28C526.82 51.44 526.22 54.38 525.01 57.12C523.81 59.86 522.16 62.25 520.09 64.28C518.01 66.31 515.58 67.93 512.8 69.14C510.02 70.34 507.05 70.95 503.9 70.95C500.74 70.95 497.78 70.35 495 69.14C492.22 67.94 489.81 66.32 487.78 64.28C485.75 62.25 484.13 59.86 482.92 57.12C481.72 54.38 481.12 51.44 481.12 48.28C481.12 45.21 481.72 42.28 482.92 39.5C484.12 36.72 485.74 34.31 487.78 32.28C489.82 30.25 492.22 28.63 495 27.42C497.78 26.22 500.75 25.61 503.9 25.61C507.05 25.61 510.02 26.21 512.8 27.42C515.58 28.63 518.01 30.24 520.09 32.28C522.16 34.31 523.8 36.72 525.01 39.5C526.22 42.28 526.82 45.21 526.82 48.28Z" fill="black"/>
</svg>
