<svg width="255" height="143" viewBox="0 0 255 143" fill="none" xmlns="http://www.w3.org/2000/svg">
<g clip-path="url(#clip0_844_3497)">
<path d="M236.988 23.0532C223.646 -20.9317 26.1698 13.0741 9.20893 43.9057C-16.2634 83.1664 32.2375 157 96.8762 137.393C161.515 117.786 250.33 67.0381 236.988 23.0532Z" fill="#4D4D58"/>
<path d="M252.429 60.4524C252.429 14.4885 53.5847 -10.2921 28.4044 14.2886C-7.3675 44.465 17.6129 129.198 85.1599 129.198C152.707 129.198 252.429 106.416 252.429 60.4524Z" fill="#37869F"/>
<mask id="path-3-outside-1_844_3497" maskUnits="userSpaceOnUse" x="119.25" y="9.06738" width="107" height="107" fill="black">
<rect fill="white" x="119.25" y="9.06738" width="107" height="107"/>
<path d="M148.348 112.067H132.889L146.83 32.1505L128.196 44.4348L122.951 32.4265L151.384 14.3451H165.325L148.348 112.067ZM222.211 35.8772C222.211 38.8217 221.889 41.5822 221.245 44.1587C220.601 46.6432 219.497 49.2657 217.932 52.0262C216.368 54.6947 214.298 57.6392 211.721 60.8598C209.145 63.9884 205.924 67.6231 202.059 71.7639L177.077 98.4028H212.411L209.927 112.067H156.649L159.133 97.5747L192.95 61.55C195.71 58.6974 197.965 56.1209 199.713 53.8205C201.461 51.5201 202.841 49.4497 203.854 47.6094C204.866 45.677 205.556 43.9287 205.924 42.3644C206.292 40.7081 206.476 39.0978 206.476 37.5335C206.476 34.773 205.694 32.2425 204.13 29.9421C202.657 27.6416 200.127 26.4914 196.538 26.4914C193.134 26.4914 190.281 27.7797 187.981 30.3561C185.68 32.8406 184.024 35.9232 183.012 39.6039L168.381 37.1194C170.589 29.2979 174.224 23.2708 179.285 19.038C184.438 14.7132 190.879 12.5508 198.609 12.5508C202.381 12.5508 205.74 13.1489 208.685 14.3451C211.629 15.5414 214.068 17.1977 216 19.3141C218.024 21.4305 219.543 23.9149 220.555 26.7675C221.659 29.62 222.211 32.6566 222.211 35.8772Z"/>
</mask>
<path d="M148.348 112.067H132.889L146.83 32.1505L128.196 44.4348L122.951 32.4265L151.384 14.3451H165.325L148.348 112.067ZM222.211 35.8772C222.211 38.8217 221.889 41.5822 221.245 44.1587C220.601 46.6432 219.497 49.2657 217.932 52.0262C216.368 54.6947 214.298 57.6392 211.721 60.8598C209.145 63.9884 205.924 67.6231 202.059 71.7639L177.077 98.4028H212.411L209.927 112.067H156.649L159.133 97.5747L192.95 61.55C195.71 58.6974 197.965 56.1209 199.713 53.8205C201.461 51.5201 202.841 49.4497 203.854 47.6094C204.866 45.677 205.556 43.9287 205.924 42.3644C206.292 40.7081 206.476 39.0978 206.476 37.5335C206.476 34.773 205.694 32.2425 204.13 29.9421C202.657 27.6416 200.127 26.4914 196.538 26.4914C193.134 26.4914 190.281 27.7797 187.981 30.3561C185.68 32.8406 184.024 35.9232 183.012 39.6039L168.381 37.1194C170.589 29.2979 174.224 23.2708 179.285 19.038C184.438 14.7132 190.879 12.5508 198.609 12.5508C202.381 12.5508 205.74 13.1489 208.685 14.3451C211.629 15.5414 214.068 17.1977 216 19.3141C218.024 21.4305 219.543 23.9149 220.555 26.7675C221.659 29.62 222.211 32.6566 222.211 35.8772Z" fill="#FF7A00"/>
<path d="M148.348 112.067V115.418C149.977 115.418 151.371 114.246 151.649 112.641L148.348 112.067ZM132.889 112.067L129.588 111.492C129.418 112.466 129.687 113.466 130.324 114.224C130.961 114.981 131.899 115.418 132.889 115.418V112.067ZM146.83 32.1505L150.131 32.7263C150.361 31.409 149.785 30.0812 148.667 29.348C147.549 28.6148 146.102 28.6167 144.985 29.3527L146.83 32.1505ZM128.196 44.4348L125.125 45.7761C125.521 46.682 126.296 47.3669 127.244 47.6478C128.192 47.9286 129.215 47.7766 130.041 47.2326L128.196 44.4348ZM122.951 32.4265L121.153 29.5988C119.759 30.485 119.219 32.2544 119.88 33.7678L122.951 32.4265ZM151.384 14.3451V10.9941C150.747 10.9941 150.124 11.1756 149.586 11.5174L151.384 14.3451ZM165.325 14.3451L168.627 14.9187C168.796 13.9443 168.526 12.9448 167.889 12.1879C167.253 11.431 166.314 10.9941 165.325 10.9941V14.3451ZM148.348 108.716H132.889V115.418H148.348V108.716ZM136.19 112.643L150.131 32.7263L143.528 31.5746L129.588 111.492L136.19 112.643ZM144.985 29.3527L126.352 41.637L130.041 47.2326L148.674 34.9483L144.985 29.3527ZM131.267 43.0934L126.022 31.0852L119.88 33.7678L125.125 45.7761L131.267 43.0934ZM124.749 35.2543L153.183 17.1729L149.586 11.5174L121.153 29.5988L124.749 35.2543ZM151.384 17.6962H165.325V10.9941H151.384V17.6962ZM162.023 13.7716L145.046 111.494L151.649 112.641L168.627 14.9187L162.023 13.7716ZM221.245 44.1587L224.489 44.9997C224.491 44.9903 224.494 44.9809 224.496 44.9715L221.245 44.1587ZM217.932 52.0262L220.823 53.7209C220.831 53.7067 220.84 53.6926 220.848 53.6783L217.932 52.0262ZM211.721 60.8598L214.308 62.9901C214.318 62.9779 214.328 62.9656 214.338 62.9532L211.721 60.8598ZM202.059 71.7639L204.504 74.0562L204.509 74.0504L202.059 71.7639ZM177.077 98.4028L174.632 96.1105C173.718 97.0849 173.471 98.5089 174.002 99.7347C174.533 100.961 175.741 101.754 177.077 101.754V98.4028ZM212.411 98.4028L215.708 99.0023C215.886 98.0246 215.621 97.0185 214.984 96.2556C214.347 95.4927 213.405 95.0518 212.411 95.0518V98.4028ZM209.927 112.067V115.418C211.546 115.418 212.934 114.26 213.224 112.667L209.927 112.067ZM156.649 112.067L153.346 111.501C153.179 112.475 153.45 113.472 154.087 114.228C154.724 114.983 155.661 115.418 156.649 115.418V112.067ZM159.133 97.5747L156.69 95.2812C156.24 95.7602 155.941 96.3609 155.83 97.0085L159.133 97.5747ZM192.95 61.55L190.541 59.2195C190.53 59.2318 190.518 59.2441 190.506 59.2565L192.95 61.55ZM203.854 47.6094L206.79 49.2243C206.801 49.2044 206.812 49.1844 206.822 49.1643L203.854 47.6094ZM205.924 42.3644L209.186 43.1319C209.189 43.1184 209.192 43.1049 209.195 43.0913L205.924 42.3644ZM204.13 29.9421L201.307 31.7485C201.324 31.7747 201.341 31.8007 201.359 31.8264L204.13 29.9421ZM187.981 30.3561L190.44 32.6329C190.453 32.618 190.467 32.6031 190.48 32.588L187.981 30.3561ZM183.012 39.6039L182.451 42.9076C184.147 43.1958 185.787 42.1518 186.243 40.4924L183.012 39.6039ZM168.381 37.1194L165.156 36.2088C164.898 37.1241 165.04 38.106 165.548 38.9099C166.057 39.7138 166.882 40.264 167.82 40.4232L168.381 37.1194ZM179.285 19.038L181.435 21.6086L181.439 21.6049L179.285 19.038ZM208.685 14.3451L207.423 17.4498L207.423 17.4498L208.685 14.3451ZM216 19.3141L213.525 21.5736C213.543 21.5927 213.56 21.6117 213.578 21.6304L216 19.3141ZM220.555 26.7675L217.397 27.8881C217.407 27.9179 217.418 27.9476 217.43 27.9772L220.555 26.7675ZM218.86 35.8772C218.86 38.577 218.565 41.0623 217.994 43.346L224.496 44.9715C225.213 42.1022 225.562 39.0664 225.562 35.8772H218.86ZM218.001 43.3177C217.445 45.4611 216.469 47.811 215.017 50.3741L220.848 53.6783C222.524 50.7203 223.756 47.8252 224.489 44.9997L218.001 43.3177ZM215.041 50.3315C213.58 52.8235 211.611 55.6332 209.104 58.7664L214.338 62.9532C216.984 59.6453 219.155 56.5658 220.823 53.7209L215.041 50.3315ZM209.134 58.7295C206.615 61.7884 203.444 65.369 199.609 69.4774L204.509 74.0504C208.404 69.8771 211.674 66.1885 214.308 62.9901L209.134 58.7295ZM199.615 69.4715L174.632 96.1105L179.521 100.695L204.504 74.0562L199.615 69.4715ZM177.077 101.754H212.411V95.0518H177.077V101.754ZM209.114 97.8034L206.63 111.468L213.224 112.667L215.708 99.0023L209.114 97.8034ZM209.927 108.716H156.649V115.418H209.927V108.716ZM159.952 112.634L162.436 98.1409L155.83 97.0085L153.346 111.501L159.952 112.634ZM161.577 99.8682L195.393 63.8434L190.506 59.2565L156.69 95.2812L161.577 99.8682ZM195.358 63.8804C198.179 60.9648 200.529 58.2854 202.381 55.8482L197.045 51.7928C195.4 53.9564 193.241 56.4301 190.541 59.2195L195.358 63.8804ZM202.381 55.8482C204.195 53.4618 205.675 51.2507 206.79 49.2243L200.917 45.9944C200.008 47.6487 198.728 49.5784 197.045 51.7928L202.381 55.8482ZM206.822 49.1643C207.922 47.065 208.735 45.0476 209.186 43.1319L202.662 41.5968C202.377 42.8098 201.81 44.289 200.885 46.0544L206.822 49.1643ZM209.195 43.0913C209.612 41.2163 209.827 39.3619 209.827 37.5335H203.125C203.125 38.8336 202.972 40.1998 202.653 41.6374L209.195 43.0913ZM209.827 37.5335C209.827 34.0954 208.84 30.9093 206.901 28.0577L201.359 31.8264C202.548 33.5757 203.125 35.4506 203.125 37.5335H209.827ZM206.952 28.1356C204.674 24.5766 200.867 23.1403 196.538 23.1403V29.8425C199.387 29.8425 200.64 30.7066 201.307 31.7485L206.952 28.1356ZM196.538 23.1403C192.163 23.1403 188.407 24.8475 185.481 28.1243L190.48 32.588C192.156 30.7118 194.104 29.8425 196.538 29.8425V23.1403ZM185.522 28.0794C182.812 31.0058 180.917 34.5834 179.781 38.7153L186.243 40.4924C187.131 37.2629 188.548 34.6754 190.44 32.6329L185.522 28.0794ZM183.573 36.3001L168.942 33.8156L167.82 40.4232L182.451 42.9076L183.573 36.3001ZM171.606 38.03C173.674 30.7056 177 25.3176 181.435 21.6086L177.135 16.4675C171.448 21.224 167.505 27.8903 165.156 36.2088L171.606 38.03ZM181.439 21.6049C185.9 17.8611 191.543 15.9019 198.609 15.9019V9.19973C190.215 9.19973 182.976 11.5654 177.131 16.4712L181.439 21.6049ZM198.609 15.9019C202.028 15.9019 204.947 16.4437 207.423 17.4498L209.946 11.2405C206.533 9.85412 202.734 9.19973 198.609 9.19973V15.9019ZM207.423 17.4498C209.956 18.4789 211.964 19.8643 213.525 21.5736L218.475 17.0545C216.171 14.5311 213.302 12.6039 209.946 11.2405L207.423 17.4498ZM213.578 21.6304C215.264 23.3932 216.537 25.4663 217.397 27.8881L223.713 25.6468C222.548 22.3635 220.784 19.4678 218.422 16.9977L213.578 21.6304ZM217.43 27.9772C218.377 30.4237 218.86 33.0481 218.86 35.8772H225.562C225.562 32.265 224.941 28.8162 223.68 25.5577L217.43 27.9772Z" fill="#4D4D58" mask="url(#path-3-outside-1_844_3497)"/>
<mask id="path-5-outside-2_844_3497" maskUnits="userSpaceOnUse" x="12" y="35.3059" width="114" height="68" fill="black">
<rect fill="white" x="12" y="35.3059" width="114" height="68"/>
<path d="M49.9116 54.311C49.9116 56.4575 49.6165 58.3893 49.0262 60.1064C48.4896 61.7699 47.7383 63.2188 46.7724 64.453C45.8065 65.6872 44.6796 66.7336 43.3918 67.5922C42.1576 68.3971 40.8429 68.9874 39.4477 69.363V69.524C40.3599 69.685 41.299 70.0338 42.2649 70.5704C43.2308 71.107 44.0894 71.8582 44.8406 72.8241C45.6455 73.7364 46.2895 74.8633 46.7724 76.2048C47.2554 77.5463 47.4968 79.1025 47.4968 80.8733C47.4968 84.0393 46.9871 86.776 45.9675 89.0835C45.0016 91.3909 43.6869 93.3227 42.0234 94.8789C40.3599 96.3814 38.4281 97.5083 36.228 98.2595C34.0816 98.9571 31.8546 99.3059 29.5472 99.3059H15.3002L25.2006 42.3178H37.1134C38.8306 42.3178 40.4672 42.5593 42.0234 43.0422C43.5796 43.4715 44.9211 44.1959 46.048 45.2155C47.2285 46.1814 48.1676 47.4156 48.8652 48.9181C49.5628 50.4206 49.9116 52.2183 49.9116 54.311ZM42.1039 80.8733C42.1039 79.2635 41.8356 77.8951 41.299 76.7682C40.7624 75.5877 40.0648 74.6218 39.2062 73.8705C38.3476 73.1193 37.3549 72.5827 36.228 72.2607C35.1548 71.8851 34.0547 71.6973 32.9278 71.6973H25.2006L21.2565 94.6374H29.1447C32.9547 94.6374 36.067 93.4568 38.4818 91.0958C40.8965 88.681 42.1039 85.2735 42.1039 80.8733ZM44.5187 54.955C44.5187 52.2183 43.6869 50.206 42.0234 48.9181C40.4136 47.6302 38.3208 46.9863 35.7451 46.9863H29.5472L26.0056 67.3507H33.1693C34.6182 67.3507 36.0134 67.0824 37.3549 66.5458C38.7501 66.0092 39.9575 65.2311 40.977 64.2115C42.0502 63.1383 42.9088 61.8504 43.5528 60.3479C44.1967 58.7917 44.5187 56.9941 44.5187 54.955ZM82.3032 72.7436C82.3032 76.1243 81.8739 79.4781 81.0154 82.8051C80.2104 86.1321 79.0299 89.1371 77.4737 91.8202C75.9175 94.4496 74.0394 96.596 71.8393 98.2595C69.6392 99.8694 67.1976 100.674 64.5146 100.674C60.9729 100.674 58.2094 99.3596 56.2239 96.7302C54.2384 94.0471 53.2457 90.4787 53.2457 86.0248C53.2457 82.6441 53.6482 79.2903 54.4531 75.9633C55.3117 72.5827 56.4922 69.5776 57.9947 66.9482C59.5509 64.2652 61.4022 62.1187 63.5487 60.5089C65.7488 58.8454 68.2172 58.0137 70.9539 58.0137C74.6028 58.0137 77.3932 59.3552 79.325 62.0382C81.3105 64.7213 82.3032 68.2898 82.3032 72.7436ZM76.9103 72.9046C76.9103 69.8459 76.4005 67.3775 75.3809 65.4994C74.3614 63.5676 72.7247 62.6017 70.4709 62.6017C68.5928 62.6017 66.9025 63.3798 65.4 64.9359C63.9511 66.4921 62.7169 68.4508 61.6973 70.8118C60.6778 73.1193 59.8997 75.6413 59.3631 78.3781C58.8265 81.1148 58.5582 83.6637 58.5582 86.0248C58.5582 89.0298 59.0411 91.4446 60.007 93.269C61.0266 95.0935 62.6632 96.0057 64.917 96.0057C66.8488 96.0057 68.5391 95.2545 69.988 93.752C71.4905 92.2495 72.7515 90.3445 73.7711 88.0371C74.7907 85.7296 75.5687 83.2344 76.1054 80.5513C76.642 77.8146 76.9103 75.2657 76.9103 72.9046ZM92.4087 99.3059H87.1767L97.8016 38.4542H103.034L92.4087 99.3059ZM122.015 63.6481H115.173L110.746 88.52C110.639 89.1103 110.559 89.7274 110.505 90.3713C110.451 90.9616 110.424 91.4714 110.424 91.9007C110.424 93.2422 110.693 94.1813 111.229 94.7179C111.766 95.2008 112.624 95.4423 113.805 95.4423C114.288 95.4423 114.825 95.3886 115.415 95.2813C116.005 95.1203 116.515 94.9325 116.944 94.7179L116.542 98.9839C115.308 99.5742 113.912 99.8694 112.356 99.8694C109.78 99.8694 107.956 99.1718 106.883 97.7766C105.81 96.3814 105.273 94.7179 105.273 92.7861C105.273 92.3568 105.3 91.8738 105.353 91.3372C105.407 90.747 105.488 90.103 105.595 89.4054L110.183 63.6481H104.709L105.353 59.382H110.746L112.598 48.4351H117.669L115.898 59.382H122.74L122.015 63.6481Z"/>
</mask>
<path d="M49.9116 54.311C49.9116 56.4575 49.6165 58.3893 49.0262 60.1064C48.4896 61.7699 47.7383 63.2188 46.7724 64.453C45.8065 65.6872 44.6796 66.7336 43.3918 67.5922C42.1576 68.3971 40.8429 68.9874 39.4477 69.363V69.524C40.3599 69.685 41.299 70.0338 42.2649 70.5704C43.2308 71.107 44.0894 71.8582 44.8406 72.8241C45.6455 73.7364 46.2895 74.8633 46.7724 76.2048C47.2554 77.5463 47.4968 79.1025 47.4968 80.8733C47.4968 84.0393 46.9871 86.776 45.9675 89.0835C45.0016 91.3909 43.6869 93.3227 42.0234 94.8789C40.3599 96.3814 38.4281 97.5083 36.228 98.2595C34.0816 98.9571 31.8546 99.3059 29.5472 99.3059H15.3002L25.2006 42.3178H37.1134C38.8306 42.3178 40.4672 42.5593 42.0234 43.0422C43.5796 43.4715 44.9211 44.1959 46.048 45.2155C47.2285 46.1814 48.1676 47.4156 48.8652 48.9181C49.5628 50.4206 49.9116 52.2183 49.9116 54.311ZM42.1039 80.8733C42.1039 79.2635 41.8356 77.8951 41.299 76.7682C40.7624 75.5877 40.0648 74.6218 39.2062 73.8705C38.3476 73.1193 37.3549 72.5827 36.228 72.2607C35.1548 71.8851 34.0547 71.6973 32.9278 71.6973H25.2006L21.2565 94.6374H29.1447C32.9547 94.6374 36.067 93.4568 38.4818 91.0958C40.8965 88.681 42.1039 85.2735 42.1039 80.8733ZM44.5187 54.955C44.5187 52.2183 43.6869 50.206 42.0234 48.9181C40.4136 47.6302 38.3208 46.9863 35.7451 46.9863H29.5472L26.0056 67.3507H33.1693C34.6182 67.3507 36.0134 67.0824 37.3549 66.5458C38.7501 66.0092 39.9575 65.2311 40.977 64.2115C42.0502 63.1383 42.9088 61.8504 43.5528 60.3479C44.1967 58.7917 44.5187 56.9941 44.5187 54.955ZM82.3032 72.7436C82.3032 76.1243 81.8739 79.4781 81.0154 82.8051C80.2104 86.1321 79.0299 89.1371 77.4737 91.8202C75.9175 94.4496 74.0394 96.596 71.8393 98.2595C69.6392 99.8694 67.1976 100.674 64.5146 100.674C60.9729 100.674 58.2094 99.3596 56.2239 96.7302C54.2384 94.0471 53.2457 90.4787 53.2457 86.0248C53.2457 82.6441 53.6482 79.2903 54.4531 75.9633C55.3117 72.5827 56.4922 69.5776 57.9947 66.9482C59.5509 64.2652 61.4022 62.1187 63.5487 60.5089C65.7488 58.8454 68.2172 58.0137 70.9539 58.0137C74.6028 58.0137 77.3932 59.3552 79.325 62.0382C81.3105 64.7213 82.3032 68.2898 82.3032 72.7436ZM76.9103 72.9046C76.9103 69.8459 76.4005 67.3775 75.3809 65.4994C74.3614 63.5676 72.7247 62.6017 70.4709 62.6017C68.5928 62.6017 66.9025 63.3798 65.4 64.9359C63.9511 66.4921 62.7169 68.4508 61.6973 70.8118C60.6778 73.1193 59.8997 75.6413 59.3631 78.3781C58.8265 81.1148 58.5582 83.6637 58.5582 86.0248C58.5582 89.0298 59.0411 91.4446 60.007 93.269C61.0266 95.0935 62.6632 96.0057 64.917 96.0057C66.8488 96.0057 68.5391 95.2545 69.988 93.752C71.4905 92.2495 72.7515 90.3445 73.7711 88.0371C74.7907 85.7296 75.5687 83.2344 76.1054 80.5513C76.642 77.8146 76.9103 75.2657 76.9103 72.9046ZM92.4087 99.3059H87.1767L97.8016 38.4542H103.034L92.4087 99.3059ZM122.015 63.6481H115.173L110.746 88.52C110.639 89.1103 110.559 89.7274 110.505 90.3713C110.451 90.9616 110.424 91.4714 110.424 91.9007C110.424 93.2422 110.693 94.1813 111.229 94.7179C111.766 95.2008 112.624 95.4423 113.805 95.4423C114.288 95.4423 114.825 95.3886 115.415 95.2813C116.005 95.1203 116.515 94.9325 116.944 94.7179L116.542 98.9839C115.308 99.5742 113.912 99.8694 112.356 99.8694C109.78 99.8694 107.956 99.1718 106.883 97.7766C105.81 96.3814 105.273 94.7179 105.273 92.7861C105.273 92.3568 105.3 91.8738 105.353 91.3372C105.407 90.747 105.488 90.103 105.595 89.4054L110.183 63.6481H104.709L105.353 59.382H110.746L112.598 48.4351H117.669L115.898 59.382H122.74L122.015 63.6481Z" fill="#FFF963"/>
<path d="M49.0262 60.1064L46.6494 59.2894C46.6442 59.3045 46.6392 59.3197 46.6342 59.3349L49.0262 60.1064ZM46.7724 64.453L44.7932 62.904L44.7932 62.904L46.7724 64.453ZM43.3918 67.5922L44.7647 69.6973C44.7718 69.6927 44.7789 69.6881 44.7859 69.6834L43.3918 67.5922ZM39.4477 69.363L38.7943 66.9361C37.6969 67.2315 36.9344 68.2266 36.9344 69.363H39.4477ZM39.4477 69.524H36.9344C36.9344 70.7435 37.8099 71.7871 39.0109 71.999L39.4477 69.524ZM42.2649 70.5704L43.4855 68.3733L43.4855 68.3733L42.2649 70.5704ZM44.8406 72.8241L42.8567 74.3672C42.8886 74.4081 42.9217 74.4481 42.956 74.487L44.8406 72.8241ZM46.7724 76.2048L44.4077 77.0561L44.4077 77.0561L46.7724 76.2048ZM45.9675 89.0835L43.6686 88.0677C43.662 88.0827 43.6555 88.0978 43.6491 88.113L45.9675 89.0835ZM42.0234 94.8789L43.708 96.744C43.7189 96.7342 43.7297 96.7243 43.7404 96.7143L42.0234 94.8789ZM36.228 98.2595L37.0048 100.65C37.0166 100.646 37.0284 100.642 37.0402 100.638L36.228 98.2595ZM15.3002 99.3059L12.8239 98.8757C12.697 99.6066 12.8994 100.356 13.3769 100.924C13.8544 101.492 14.5584 101.819 15.3002 101.819V99.3059ZM25.2006 42.3178V39.8045C23.9786 39.8045 22.9336 40.6835 22.7244 41.8876L25.2006 42.3178ZM42.0234 43.0422L41.2785 45.4426C41.3039 45.4505 41.3294 45.4579 41.355 45.465L42.0234 43.0422ZM46.048 45.2155L44.3618 47.0792C44.3927 47.1071 44.4242 47.1343 44.4565 47.1607L46.048 45.2155ZM48.8652 48.9181L51.1448 47.8597L51.1448 47.8597L48.8652 48.9181ZM41.299 76.7682L39.011 77.8082C39.0171 77.8218 39.0234 77.8353 39.0298 77.8488L41.299 76.7682ZM39.2062 73.8705L40.8612 71.9791L40.8612 71.9791L39.2062 73.8705ZM36.228 72.2607L35.3977 74.6329C35.4439 74.6491 35.4905 74.6639 35.5375 74.6773L36.228 72.2607ZM25.2006 71.6973V69.1839C23.9769 69.1839 22.931 70.0653 22.7237 71.2714L25.2006 71.6973ZM21.2565 94.6374L18.7796 94.2115C18.654 94.9418 18.8572 95.6904 19.3347 96.257C19.8122 96.8237 20.5155 97.1507 21.2565 97.1507V94.6374ZM38.4818 91.0958L40.2389 92.8928C40.2456 92.8862 40.2523 92.8796 40.259 92.8729L38.4818 91.0958ZM42.0234 48.9181L40.4534 50.8807C40.4638 50.889 40.4743 50.8973 40.4848 50.9054L42.0234 48.9181ZM29.5472 46.9863V44.473C28.3253 44.473 27.2804 45.3518 27.0711 46.5557L29.5472 46.9863ZM26.0056 67.3507L23.5294 66.9201C23.4023 67.651 23.6046 68.4007 24.0821 68.9685C24.5597 69.5362 25.2637 69.864 26.0056 69.864V67.3507ZM37.3549 66.5458L36.4527 64.2C36.4422 64.204 36.4318 64.2081 36.4215 64.2122L37.3549 66.5458ZM43.5528 60.3479L45.8628 61.338C45.867 61.3283 45.8711 61.3186 45.8751 61.3089L43.5528 60.3479ZM47.3983 54.311C47.3983 56.2288 47.1345 57.8781 46.6494 59.2894L51.403 60.9235C52.0984 58.9005 52.4249 56.6862 52.4249 54.311H47.3983ZM46.6342 59.3349C46.178 60.7492 45.5571 61.9279 44.7932 62.904L48.7517 66.002C49.9196 64.5097 50.8011 62.7907 51.4181 60.878L46.6342 59.3349ZM44.7932 62.904C43.9901 63.9302 43.06 64.7927 41.9976 65.501L44.7859 69.6834C46.2992 68.6745 47.6229 67.4442 48.7517 66.002L44.7932 62.904ZM42.0188 65.487C41.0016 66.1504 39.9291 66.6306 38.7943 66.9361L40.1011 71.7899C41.7566 71.3442 43.3135 70.6438 44.7647 69.6973L42.0188 65.487ZM36.9344 69.363V69.524H41.961V69.363H36.9344ZM39.0109 71.999C39.6011 72.1032 40.2767 72.3409 41.0443 72.7674L43.4855 68.3733C42.3213 67.7266 41.1188 67.2667 39.8844 67.0489L39.0109 71.999ZM41.0443 72.7674C41.684 73.1228 42.2909 73.6396 42.8567 74.3672L46.8245 71.2811C45.8878 70.0768 44.7775 69.0912 43.4855 68.3733L41.0443 72.7674ZM42.956 74.487C43.5184 75.1243 44.014 75.9625 44.4077 77.0561L49.1372 75.3535C48.565 73.764 47.7727 72.3485 46.7252 71.1613L42.956 74.487ZM44.4077 77.0561C44.7718 78.0675 44.9835 79.3252 44.9835 80.8733H50.0102C50.0102 78.8798 49.7389 77.0251 49.1372 75.3535L44.4077 77.0561ZM44.9835 80.8733C44.9835 83.7758 44.5156 86.1508 43.6686 88.0677L48.2664 90.0992C49.4585 87.4013 50.0102 84.3028 50.0102 80.8733H44.9835ZM43.6491 88.113C42.8068 90.1253 41.6861 91.7528 40.3064 93.0435L43.7404 96.7143C45.6877 94.8926 47.1964 92.6565 48.2859 90.0539L43.6491 88.113ZM40.3388 93.0137C38.9377 94.2792 37.3056 95.2358 35.4158 95.881L37.0402 100.638C39.5507 99.7807 41.7821 98.4835 43.708 96.744L40.3388 93.0137ZM35.4512 95.8693C33.5612 96.4835 31.5968 96.7926 29.5472 96.7926V101.819C32.1124 101.819 34.6019 101.431 37.0048 100.65L35.4512 95.8693ZM29.5472 96.7926H15.3002V101.819H29.5472V96.7926ZM17.7764 99.7361L27.6769 42.748L22.7244 41.8876L12.8239 98.8757L17.7764 99.7361ZM25.2006 44.8311H37.1134V39.8045H25.2006V44.8311ZM37.1134 44.8311C38.5916 44.8311 39.9762 45.0384 41.2785 45.4426L42.7683 40.6418C40.9582 40.0801 39.0695 39.8045 37.1134 39.8045V44.8311ZM41.355 45.465C42.5571 45.7966 43.5439 46.3392 44.3618 47.0792L47.7342 43.3518C46.2983 42.0526 44.6021 41.1464 42.6918 40.6194L41.355 45.465ZM44.4565 47.1607C45.3191 47.8665 46.0336 48.7876 46.5856 49.9765L51.1448 47.8597C50.3016 46.0436 49.138 44.4963 47.6395 43.2703L44.4565 47.1607ZM46.5856 49.9765C47.0943 51.0721 47.3983 52.4906 47.3983 54.311H52.4249C52.4249 51.9459 52.0313 49.7691 51.1448 47.8597L46.5856 49.9765ZM44.6172 80.8733C44.6172 78.994 44.305 77.2352 43.5681 75.6877L39.0298 77.8488C39.3661 78.5551 39.5906 79.5329 39.5906 80.8733H44.6172ZM43.587 75.7282C42.9226 74.2665 42.0235 72.996 40.8612 71.9791L37.5512 75.762C38.1061 76.2475 38.6021 76.9088 39.011 77.8082L43.587 75.7282ZM40.8612 71.9791C39.716 70.977 38.3916 70.265 36.9185 69.8441L35.5375 74.6773C36.3181 74.9003 36.9792 75.2615 37.5512 75.762L40.8612 71.9791ZM37.0583 69.8885C35.7207 69.4203 34.34 69.1839 32.9278 69.1839V74.2106C33.7694 74.2106 34.5889 74.3498 35.3977 74.6329L37.0583 69.8885ZM32.9278 69.1839H25.2006V74.2106H32.9278V69.1839ZM22.7237 71.2714L18.7796 94.2115L23.7335 95.0633L27.6776 72.1231L22.7237 71.2714ZM21.2565 97.1507H29.1447V92.1241H21.2565V97.1507ZM29.1447 97.1507C33.52 97.1507 37.2929 95.7733 40.2389 92.8928L36.7247 89.2987C34.8411 91.1404 32.3893 92.1241 29.1447 92.1241V97.1507ZM40.259 92.8729C43.2704 89.8615 44.6172 85.739 44.6172 80.8733H39.5906C39.5906 84.808 38.5227 87.5005 36.7046 89.3186L40.259 92.8729ZM47.032 54.955C47.032 51.6952 46.0169 48.8313 43.562 46.9308L40.4848 50.9054C41.3569 51.5806 42.0053 52.7413 42.0053 54.955H47.032ZM43.5935 46.9555C41.4362 45.2297 38.7458 44.473 35.7451 44.473V49.4996C37.8957 49.4996 39.391 50.0307 40.4534 50.8807L43.5935 46.9555ZM35.7451 44.473H29.5472V49.4996H35.7451V44.473ZM27.0711 46.5557L23.5294 66.9201L28.4817 67.7813L32.0233 47.4169L27.0711 46.5557ZM26.0056 69.864H33.1693V64.8374H26.0056V69.864ZM33.1693 69.864C34.937 69.864 36.6491 69.535 38.2883 68.8793L36.4215 64.2122C35.3777 64.6298 34.2993 64.8374 33.1693 64.8374V69.864ZM38.2571 68.8916C39.9682 68.2335 41.4768 67.2661 42.7542 65.9887L39.1998 62.4343C38.4381 63.1961 37.532 63.7849 36.4527 64.2L38.2571 68.8916ZM42.7542 65.9887C44.0704 64.6725 45.1027 63.1115 45.8628 61.338L41.2427 59.3579C40.7149 60.5893 40.0301 61.6041 39.1998 62.4343L42.7542 65.9887ZM45.8751 61.3089C46.6687 59.3911 47.032 57.256 47.032 54.955H42.0053C42.0053 56.7322 41.7247 58.1924 41.2304 59.387L45.8751 61.3089ZM81.0154 82.8051L78.5818 82.1771C78.5786 82.1894 78.5755 82.2017 78.5725 82.2141L81.0154 82.8051ZM77.4737 91.8202L79.6366 93.1003C79.6404 93.0939 79.6441 93.0875 79.6478 93.0812L77.4737 91.8202ZM71.8393 98.2595L73.3234 100.288C73.334 100.28 73.3446 100.272 73.3551 100.264L71.8393 98.2595ZM56.2239 96.7302L54.2036 98.2252C54.2084 98.2317 54.2133 98.2382 54.2182 98.2447L56.2239 96.7302ZM54.4531 75.9633L52.0171 75.3447C52.0148 75.3539 52.0125 75.3631 52.0103 75.3723L54.4531 75.9633ZM57.9947 66.9482L55.8206 65.6873C55.8179 65.6919 55.8152 65.6966 55.8126 65.7013L57.9947 66.9482ZM63.5487 60.5089L65.0566 62.5196L65.0644 62.5137L63.5487 60.5089ZM79.325 62.0382L77.2854 63.5068C77.2918 63.5157 77.2982 63.5245 77.3047 63.5333L79.325 62.0382ZM75.3809 65.4994L73.1582 66.6725C73.1628 66.6812 73.1674 66.6898 73.1721 66.6985L75.3809 65.4994ZM65.4 64.9359L63.5919 63.1902C63.5813 63.2012 63.5709 63.2122 63.5605 63.2233L65.4 64.9359ZM61.6973 70.8118L63.9962 71.8276C63.9991 71.8212 64.0019 71.8147 64.0047 71.8082L61.6973 70.8118ZM59.3631 78.3781L56.8967 77.8945L56.8967 77.8945L59.3631 78.3781ZM60.007 93.269L57.7858 94.445C57.7947 94.4618 57.8038 94.4785 57.813 94.4951L60.007 93.269ZM69.988 93.752L68.2108 91.9748C68.2 91.9856 68.1894 91.9964 68.1788 92.0074L69.988 93.752ZM73.7711 88.0371L76.07 89.0529L76.07 89.0529L73.7711 88.0371ZM76.1054 80.5513L78.5699 81.0442L78.5717 81.0349L76.1054 80.5513ZM79.7899 72.7436C79.7899 75.909 79.3883 79.0519 78.5818 82.1771L83.4489 83.4331C84.3596 79.9044 84.8165 76.3396 84.8165 72.7436H79.7899ZM78.5725 82.2141C77.8187 85.3301 76.7226 88.1058 75.2996 90.5592L79.6478 93.0812C81.3372 90.1685 82.6022 86.9341 83.4582 83.3961L78.5725 82.2141ZM75.3108 90.5401C73.9032 92.9185 72.2361 94.8086 70.3235 96.2548L73.3551 100.264C75.8427 98.3834 77.9319 95.9806 79.6366 93.1003L75.3108 90.5401ZM70.3552 96.2312C68.5783 97.5314 66.6548 98.161 64.5146 98.161V103.188C67.7404 103.188 70.7001 102.207 73.3234 100.288L70.3552 96.2312ZM64.5146 98.161C61.6926 98.161 59.7003 97.1633 58.2296 95.2156L54.2182 98.2447C56.7184 101.556 60.2532 103.188 64.5146 103.188V98.161ZM58.2442 95.2352C56.6709 93.109 55.759 90.1188 55.759 86.0248H50.7324C50.7324 90.8385 51.806 94.9852 54.2036 98.2252L58.2442 95.2352ZM55.759 86.0248C55.759 82.8457 56.1372 79.6902 56.8959 76.5543L52.0103 75.3723C51.1591 78.8904 50.7324 82.4425 50.7324 86.0248H55.759ZM56.8891 76.582C57.7001 73.3887 58.8025 70.6004 60.1769 68.1952L55.8126 65.7013C54.1819 68.5549 52.9233 71.7766 52.0171 75.3447L56.8891 76.582ZM60.1688 68.2092C61.5818 65.7731 63.2192 63.8976 65.0566 62.5195L62.0407 58.4983C59.5852 60.3398 57.52 62.7573 55.8206 65.6873L60.1688 68.2092ZM65.0644 62.5137C66.8318 61.1774 68.7689 60.527 70.9539 60.527V55.5004C67.6654 55.5004 64.6657 56.5135 62.0329 58.5041L65.0644 62.5137ZM70.9539 60.527C73.8919 60.527 75.8801 61.5549 77.2854 63.5068L81.3647 60.5697C78.9064 57.1554 75.3138 55.5004 70.9539 55.5004V60.527ZM77.3047 63.5333C78.8781 65.6594 79.7899 68.6496 79.7899 72.7436H84.8165C84.8165 67.9299 83.7429 63.7832 81.3453 60.5432L77.3047 63.5333ZM79.4236 72.9046C79.4236 69.5965 78.8768 66.6711 77.5898 64.3003L73.1721 66.6985C73.9242 68.0839 74.397 70.0954 74.397 72.9046H79.4236ZM77.6037 64.3263C76.9098 63.0115 75.9423 61.9148 74.6662 61.1616C73.3944 60.4111 71.9631 60.0884 70.4709 60.0884V65.115C71.2326 65.115 71.7465 65.2753 72.1114 65.4906C72.4719 65.7034 72.8326 66.0555 73.1582 66.6725L77.6037 64.3263ZM70.4709 60.0884C67.8058 60.0884 65.4897 61.2247 63.5919 63.1902L67.208 66.6817C68.3153 65.5349 69.3798 65.115 70.4709 65.115V60.0884ZM63.5605 63.2233C61.8797 65.0286 60.5003 67.2442 59.39 69.8155L64.0047 71.8082C64.9335 69.6573 66.0225 67.9556 67.2394 66.6486L63.5605 63.2233ZM59.3985 69.7961C58.2961 72.2909 57.4655 74.9937 56.8967 77.8945L61.8294 78.8617C62.3339 76.289 63.0595 73.9476 63.9962 71.8276L59.3985 69.7961ZM56.8967 77.8945C56.3343 80.7627 56.0449 83.4753 56.0449 86.0248H61.0715C61.0715 83.8521 61.3186 81.4668 61.8294 78.8617L56.8967 77.8945ZM56.0449 86.0248C56.0449 89.266 56.5606 92.1307 57.7858 94.445L62.2282 92.0931C61.5216 90.7584 61.0715 88.7936 61.0715 86.0248H56.0449ZM57.813 94.4951C59.3179 97.188 61.8403 98.5191 64.917 98.5191V93.4924C63.4862 93.4924 62.7353 92.9991 62.201 92.043L57.813 94.4951ZM64.917 98.5191C67.5899 98.5191 69.917 97.4464 71.7972 95.4966L68.1788 92.0074C67.1613 93.0626 66.1077 93.4924 64.917 93.4924V98.5191ZM71.7652 95.5292C73.524 93.7703 74.948 91.5921 76.07 89.0529L71.4722 87.0213C70.5551 89.0969 69.457 90.7286 68.2108 91.9748L71.7652 95.5292ZM76.07 89.0529C77.1696 86.5642 78.0003 83.8921 78.5699 81.0442L73.6409 80.0584C73.1372 82.5767 72.4117 84.8951 71.4722 87.0213L76.07 89.0529ZM78.5717 81.0349C79.1341 78.1667 79.4236 75.4541 79.4236 72.9046H74.397C74.397 75.0774 74.1498 77.4626 73.639 80.0677L78.5717 81.0349ZM92.4087 99.3059V101.819C93.63 101.819 94.6745 100.941 94.8846 99.7382L92.4087 99.3059ZM87.1767 99.3059L84.7009 98.8736C84.5732 99.6047 84.7752 100.355 85.2528 100.923C85.7303 101.491 86.4346 101.819 87.1767 101.819V99.3059ZM97.8016 38.4542V35.9409C96.5804 35.9409 95.5359 36.8188 95.3258 38.0219L97.8016 38.4542ZM103.034 38.4542L105.509 38.8865C105.637 38.1553 105.435 37.4052 104.958 36.837C104.48 36.2689 103.776 35.9409 103.034 35.9409V38.4542ZM92.4087 96.7926H87.1767V101.819H92.4087V96.7926ZM89.6526 99.7382L100.277 38.8865L95.3258 38.0219L84.7009 98.8736L89.6526 99.7382ZM97.8016 40.9675H103.034V35.9409H97.8016V40.9675ZM100.558 38.0219L89.9328 98.8736L94.8846 99.7382L105.509 38.8865L100.558 38.0219ZM122.015 63.6481V66.1614C123.241 66.1614 124.288 65.2772 124.493 64.0688L122.015 63.6481ZM115.173 63.6481V61.1348C113.955 61.1348 112.912 62.0083 112.699 63.2077L115.173 63.6481ZM110.746 88.52L113.219 88.9696L113.221 88.9604L110.746 88.52ZM110.505 90.3713L113.008 90.5989C113.008 90.5926 113.009 90.5863 113.009 90.58L110.505 90.3713ZM111.229 94.7179L109.452 96.4951C109.483 96.5262 109.515 96.5565 109.548 96.586L111.229 94.7179ZM115.415 95.2813L115.864 97.7541C115.936 97.7411 116.006 97.7251 116.076 97.7061L115.415 95.2813ZM116.944 94.7179L119.446 94.9539C119.532 94.0447 119.118 93.1605 118.365 92.6444C117.611 92.1283 116.637 92.0615 115.82 92.4699L116.944 94.7179ZM116.542 98.9839L117.626 101.251C118.423 100.87 118.961 100.099 119.044 99.22L116.542 98.9839ZM106.883 97.7766L104.891 99.309L104.891 99.309L106.883 97.7766ZM105.353 91.3372L107.854 91.5873C107.855 91.5798 107.856 91.5723 107.856 91.5648L105.353 91.3372ZM105.595 89.4054L103.121 88.9647C103.117 88.9842 103.114 89.0037 103.111 89.0233L105.595 89.4054ZM110.183 63.6481L112.657 64.0888C112.788 63.3567 112.587 62.6043 112.11 62.0342C111.632 61.4641 110.927 61.1348 110.183 61.1348V63.6481ZM104.709 63.6481L102.224 63.273C102.115 63.9968 102.327 64.7323 102.804 65.2873C103.282 65.8422 103.977 66.1614 104.709 66.1614V63.6481ZM105.353 59.382V56.8687C104.11 56.8687 103.054 57.7776 102.868 59.0069L105.353 59.382ZM110.746 59.382V61.8953C111.973 61.8953 113.02 61.0103 113.224 59.8011L110.746 59.382ZM112.598 48.4351V45.9218C111.371 45.9218 110.324 46.8069 110.12 48.0161L112.598 48.4351ZM117.669 48.4351L120.15 48.8365C120.267 48.1093 120.06 47.367 119.582 46.806C119.105 46.2451 118.405 45.9218 117.669 45.9218V48.4351ZM115.898 59.382L113.417 58.9807C113.299 59.7079 113.506 60.4502 113.984 61.0111C114.462 61.5721 115.161 61.8953 115.898 61.8953V59.382ZM122.74 59.382L125.217 59.8028C125.341 59.0731 125.137 58.3259 124.66 57.7604C124.182 57.1949 123.48 56.8687 122.74 56.8687V59.382ZM122.015 61.1348H115.173V66.1614H122.015V61.1348ZM112.699 63.2077L108.272 88.0796L113.221 88.9604L117.648 64.0885L112.699 63.2077ZM108.274 88.0704C108.151 88.7462 108.06 89.444 108 90.1626L113.009 90.58C113.057 90.0108 113.127 89.4743 113.219 88.9696L108.274 88.0704ZM108.002 90.1438C107.944 90.7835 107.911 91.373 107.911 91.9007H112.938C112.938 91.5697 112.959 91.1397 113.008 90.5989L108.002 90.1438ZM107.911 91.9007C107.911 93.4375 108.192 95.2348 109.452 96.4951L113.006 92.9407C113.115 93.049 113.092 93.0945 113.042 92.9207C112.991 92.7417 112.938 92.4184 112.938 91.9007H107.911ZM109.548 96.586C110.762 97.6789 112.374 97.9556 113.805 97.9556V92.929C113.375 92.929 113.106 92.8838 112.956 92.8418C112.813 92.8014 112.833 92.7795 112.911 92.8498L109.548 96.586ZM113.805 97.9556C114.47 97.9556 115.16 97.8822 115.864 97.7541L114.965 92.8086C114.489 92.8951 114.106 92.929 113.805 92.929V97.9556ZM116.076 97.7061C116.785 97.5128 117.457 97.2714 118.068 96.9659L115.82 92.4699C115.573 92.5936 115.225 92.7279 114.754 92.8566L116.076 97.7061ZM114.442 94.4818L114.04 98.7479L119.044 99.22L119.446 94.9539L114.442 94.4818ZM115.457 96.7166C114.605 97.124 113.589 97.356 112.356 97.356V102.383C114.236 102.383 116.01 102.024 117.626 101.251L115.457 96.7166ZM112.356 97.356C110.184 97.356 109.282 96.7735 108.875 96.2442L104.891 99.309C106.63 101.57 109.377 102.383 112.356 102.383V97.356ZM108.875 96.2442C108.173 95.3316 107.786 94.2208 107.786 92.7861H102.76C102.76 95.2149 103.446 97.4311 104.891 99.309L108.875 96.2442ZM107.786 92.7861C107.786 92.4582 107.807 92.0608 107.854 91.5873L102.853 91.0871C102.793 91.6869 102.76 92.2553 102.76 92.7861H107.786ZM107.856 91.5648C107.905 91.0348 107.978 90.4432 108.079 89.7876L103.111 89.0233C102.997 89.7629 102.91 90.4591 102.85 91.1097L107.856 91.5648ZM108.069 89.8462L112.657 64.0888L107.709 63.2073L103.121 88.9647L108.069 89.8462ZM110.183 61.1348H104.709V66.1614H110.183V61.1348ZM107.195 64.0232L107.839 59.7571L102.868 59.0069L102.224 63.273L107.195 64.0232ZM105.353 61.8953H110.746V56.8687H105.353V61.8953ZM113.224 59.8011L115.076 48.8542L110.12 48.0161L108.268 58.9629L113.224 59.8011ZM112.598 50.9485H117.669V45.9218H112.598V50.9485ZM115.188 48.0338L113.417 58.9807L118.379 59.7834L120.15 48.8365L115.188 48.0338ZM115.898 61.8953H122.74V56.8687H115.898V61.8953ZM120.262 58.9613L119.537 63.2273L124.493 64.0688L125.217 59.8028L120.262 58.9613Z" fill="#4D4D58" mask="url(#path-5-outside-2_844_3497)"/>
</g>
<defs>
<clipPath id="clip0_844_3497">
<rect width="255" height="142.688" fill="white"/>
</clipPath>
</defs>
</svg>
