<?xml version="1.0" encoding="utf-8"?>
<!-- Generator: Adobe Illustrator 27.8.1, SVG Export Plug-In . SVG Version: 6.00 Build 0)  -->
<svg version="1.1" id="Layer_1" xmlns="http://www.w3.org/2000/svg" xmlns:xlink="http://www.w3.org/1999/xlink" x="0px" y="0px"
	 viewBox="0 0 350.8 134.4" style="enable-background:new 0 0 350.8 134.4;" xml:space="preserve">
<style type="text/css">
	.st0{fill:#000000;}
	.st1{fill:#F0D003;}
	.st2{fill:#000000;}
</style>
<g>
	<g>
		<g>
			<polygon class="st0" points="92.9,103.8 92.9,76.6 86.8,76.6 86.8,108.9 104.4,108.9 106.9,103.8 			"/>
			<rect x="117" y="76.6" class="st0" width="6.1" height="32.3"/>
			<polygon class="st0" points="193.2,108.9 193.2,76.6 187,76.6 187,89.6 175.2,89.6 175.2,76.6 169,76.6 169,108.9 175.2,108.9 
				175.2,94.7 187,94.7 187,108.9 			"/>
			<polygon class="st0" points="226,76.6 204.7,76.6 202.1,81.7 211,81.7 211,108.9 217.1,108.9 217.1,81.7 223.4,81.7 			"/>
			<polygon class="st0" points="259.2,108.9 259.2,76.6 253.4,76.6 253.4,97.8 240.2,76.6 235.1,76.6 235.1,108.9 240.9,108.9 
				240.9,87.9 254.1,108.9 			"/>
			<rect x="271.6" y="76.6" class="st0" width="6.1" height="32.3"/>
			<polygon class="st0" points="314.2,108.9 314.2,76.6 308.4,76.6 308.4,97.8 295.1,76.6 290,76.6 290,108.9 295.8,108.9 
				295.8,87.9 309,108.9 			"/>
			<g>
				<path class="st0" d="M334.4,109c0.4,0.1,0.8,0.2,1.2,0.2h0.1c0.7,0.1,1.2,0.1,1.8,0.1c0.5,0,1,0,1.5-0.1l0,0l0,0c0,0,0,0,0.1,0
					h0.1c3.4-0.3,6.2-1.6,8.5-3.8c2.2-2.2,3.1-5,3.1-9.9v-4.7h-9.4l-2.8,5.1h5.9h0.1V96v1.2c0,1.9-0.5,3.4-1.5,4.5
					c-1.3,1.3-2.8,1.7-4,1.9c-0.5,0.1-1,0.1-1.4,0.1c-4,0-8.1-3.4-8.1-11c0-5.5,2.4-11.1,7.9-11.1c0.4,0,0.8,0,1.2,0.1
					c2.2,0.4,4.8,1.8,5.7,4.3l5.2-3c-0.6-1.2-3.5-6-10.5-6.8H339l0,0l0,0c-0.5,0-1-0.1-1.5-0.1c-1,0-2.1,0.1-3.1,0.4h-0.1h-0.1
					c-0.2,0-0.4,0.1-0.6,0.2c-6.3,1.8-10.2,8-10,16.1c0,8.2,4,14.3,10.3,16.1v0.1l0,0l0,0l0,0C334,108.9,334.2,109,334.4,109z"/>
			</g>
			<g>
				<path class="st0" d="M143.2,109c0.4,0.1,0.8,0.2,1.2,0.2h0.1c0.7,0.1,1.2,0.1,1.8,0.1c0.5,0,1,0,1.5-0.1l0,0l0,0c0,0,0,0,0.1,0
					h0.1c3.4-0.3,6.2-1.6,8.5-3.8c2.2-2.2,3.1-5,3.1-9.9v-4.7h-9.4l-2.8,5.1h5.9h0.1V96v1.2c0,1.9-0.5,3.4-1.5,4.5
					c-1.3,1.3-2.8,1.7-4,1.9c-0.5,0.1-1,0.1-1.4,0.1c-4,0-8.1-3.4-8.1-11c0-5.5,2.4-11.1,7.9-11.1c0.4,0,0.8,0,1.2,0.1
					c2.2,0.4,4.8,1.8,5.7,4.3l5.2-3c-0.6-1.2-3.5-6-10.5-6.8h-0.1l0,0l0,0c-0.5,0-1-0.1-1.5-0.1c-1,0-2.1,0.1-3.1,0.4h-0.1H143
					c-0.2,0-0.4,0.1-0.6,0.2c-6.3,1.8-10.2,8-10,16.1c0,8.2,4,14.3,10.3,16.1v0.1l0,0l0,0l0,0C142.8,108.9,143,109,143.2,109z"/>
			</g>
		</g>
		<g>
			<path class="st1" d="M166.6,45.1l5.8,12.7h6.7l-6.7-13.9l0.3-0.1c3.6-1.5,5.4-4.4,5.4-8.6c0-6.3-4.3-9.8-12-9.8h-11.5v32.3h6.1
				V44.8h5.8L166.6,45.1z M160.8,39.9v-9.2h4.7c3.2,0,6.5,0.6,6.5,4.6s-3.1,4.5-6.5,4.5L160.8,39.9L160.8,39.9z"/>
			<polygon class="st1" points="208.9,30.7 208.9,25.6 189,25.6 189,57.9 208.9,57.9 208.9,52.8 195.1,52.8 195.1,43.7 207.5,43.7 
				207.5,38.6 195.1,38.6 195.1,30.7 			"/>
			<path class="st1" d="M98.9,53.1c-0.4,0-0.8,0.1-1.2,0.1c-5.6,0-8.1-5.7-8.1-11.3l0,0l0,0c0-5.6,2.5-11.3,8.1-11.3
				c0.4,0,0.8,0,1.2,0.1c2.2,0.4,4.9,1.8,5.8,4.3l5-2.9c-0.8-1.5-3.7-5.9-10.4-6.6h-0.2c-0.5,0-1-0.1-1.4-0.1c-1,0-2.1,0.1-3.1,0.4
				h-0.2c-0.2,0-0.4,0.1-0.6,0.2c-6.3,1.8-10.1,7.9-10,15.9l0,0l0,0l0,0l0,0c-0.1,8,3.7,14.1,10,15.9c0.2,0.1,0.4,0.1,0.6,0.2h0.2
				c1,0.2,2.1,0.4,3.1,0.4c0.4,0,0.9,0,1.4-0.1h0.2c6.8-0.7,9.6-5.1,10.4-6.6l-5-2.9C103.8,51.2,101.1,52.7,98.9,53.1z"/>
			<path class="st1" d="M145.6,41.7L145.6,41.7c0-3.8-0.8-7.2-2.3-9.9l0,0c-0.4-0.8-1.5-2.5-3.4-4c-0.1,0-0.1-0.1-0.2-0.1
				c-0.1-0.1-0.3-0.2-0.5-0.3c-1.1-0.8-2.4-1.4-3.7-1.8c-0.2-0.1-0.4-0.1-0.6-0.2h-0.2c-1-0.2-2.1-0.4-3.1-0.4c-0.1,0-0.1,0-0.2,0
				s-0.1,0-0.2,0c-1.1,0-2.1,0.1-3.1,0.4h-0.2c-0.2,0-0.4,0.1-0.6,0.2c-1.4,0.4-2.6,1-3.7,1.8c-0.2,0.1-0.3,0.2-0.5,0.3
				c-0.1,0-0.1,0.1-0.2,0.1c-1.9,1.5-3,3.1-3.4,4l0,0c-1.6,2.7-2.4,6.1-2.3,9.9l0,0l0,0l0,0l0,0c0,3.8,0.8,7.2,2.3,9.9l0,0
				c0.4,0.8,1.5,2.5,3.4,4c0.1,0,0.1,0.1,0.2,0.1c0.1,0.1,0.3,0.2,0.5,0.3c1.1,0.8,2.4,1.4,3.7,1.8c0.2,0.1,0.4,0.1,0.6,0.2h0.2
				c1,0.2,2.1,0.4,3.1,0.4c0.1,0,0.1,0,0.2,0c0.1,0,0.1,0,0.2,0c1.1,0,2.1-0.1,3.1-0.4h0.2c0.2,0,0.4-0.1,0.6-0.2
				c1.4-0.4,2.6-1,3.7-1.8c0.2-0.1,0.3-0.2,0.5-0.3c0.1,0,0.1-0.1,0.2-0.1c1.9-1.5,3-3.1,3.4-4l0,0
				C144.9,48.9,145.7,45.5,145.6,41.7L145.6,41.7C145.6,41.8,145.6,41.8,145.6,41.7L145.6,41.7z M135.1,52.1
				c-0.9,0.5-1.8,0.8-2.7,0.9c-0.4,0-0.8,0.1-1.1,0.1c-0.4,0-0.8,0-1.1-0.1c-0.9-0.1-1.8-0.5-2.7-0.9c-3.1-1.9-4.5-6.1-4.5-10.4l0,0
				l0,0c0-4.2,1.4-8.5,4.5-10.4c0.9-0.5,1.8-0.8,2.7-0.9c0.4,0,0.8-0.1,1.1-0.1c0.4,0,0.8,0,1.1,0.1c0.9,0.1,1.8,0.5,2.7,0.9
				c3.1,1.9,4.5,6.1,4.5,10.4l0,0l0,0C139.6,46,138.1,50.2,135.1,52.1z"/>
		</g>
	</g>
	<g>
		<polygon class="st1" points="52.3,0 0.5,69.7 60.1,54.3 24.4,54.3 		"/>
		<polygon class="st2" points="7.7,134.4 59.5,64.7 0,80.1 35.6,80.1 		"/>
	</g>
</g>
</svg>
