<svg xmlns="http://www.w3.org/2000/svg" width="224" height="72" fill="none"><path d="M69.882 36c0 18.713-15.17 33.882-33.882 33.882-18.713 0-33.882-15.17-33.882-33.882C2.118 17.287 17.288 2.118 36 2.118c18.713 0 33.882 15.17 33.882 33.882Z"/><path fill="currentColor" fill-rule="evenodd" d="M36 4.235C18.457 4.235 4.235 18.457 4.235 36S18.457 67.765 36 67.765 67.765 53.543 67.765 36 53.543 4.235 36 4.235ZM0 36C0 16.118 16.118 0 36 0s36 16.118 36 36-16.118 36-36 36S0 55.882 0 36Z" clip-rule="evenodd"/><path fill="currentColor" fill-rule="evenodd" d="M36 58.588c12.475 0 22.588-10.113 22.588-22.588 0-12.475-10.113-22.588-22.588-22.588-12.475 0-22.588 10.113-22.588 22.588 0 12.475 10.113 22.588 22.588 22.588ZM36 54c9.941 0 18-8.059 18-18s-8.059-18-18-18-18 8.059-18 18 8.059 18 18 18Z" clip-rule="evenodd"/><path fill="currentColor" fill-rule="evenodd" d="M36 22.899c-7.236 0-13.101 5.865-13.101 13.101 0 7.236 5.865 13.101 13.101 13.101V22.9Z" clip-rule="evenodd"/><path fill="currentColor" d="M97.608 27.704c1.936 0 3.64.384 5.112 1.152 1.472.768 2.648 1.832 3.528 3.192.896 1.36 1.432 2.904 1.608 4.632h-4.992a5.382 5.382 0 0 0-.816-2.136 4.842 4.842 0 0 0-1.752-1.656c-.736-.432-1.624-.648-2.664-.648-1.856 0-3.368.688-4.536 2.064-1.152 1.376-1.728 3.488-1.728 6.336 0 2.624.552 4.712 1.656 6.264 1.104 1.552 2.68 2.328 4.728 2.328 1.024 0 1.896-.224 2.616-.672.736-.464 1.312-1.032 1.728-1.704.432-.688.712-1.376.84-2.064h4.848c-.144 1.68-.672 3.176-1.584 4.488-.896 1.312-2.08 2.344-3.552 3.096-1.456.736-3.136 1.104-5.04 1.104-2.272 0-4.296-.496-6.072-1.488-1.76-1.008-3.144-2.464-4.152-4.368-1.008-1.92-1.512-4.232-1.512-6.936 0-2.576.472-4.832 1.416-6.768.944-1.952 2.296-3.472 4.056-4.56 1.76-1.104 3.848-1.656 6.264-1.656ZM122.09 53.48c-2.368 0-4.432-.504-6.192-1.512-1.76-1.024-3.128-2.488-4.104-4.392-.96-1.904-1.44-4.192-1.44-6.864 0-2.592.464-4.864 1.392-6.816.944-1.952 2.296-3.472 4.056-4.56 1.76-1.088 3.864-1.632 6.312-1.632 2.368 0 4.424.52 6.168 1.56 1.744 1.04 3.088 2.528 4.032 4.464.96 1.936 1.44 4.264 1.44 6.984 0 2.512-.456 4.728-1.368 6.648-.896 1.904-2.216 3.4-3.96 4.488-1.728 1.088-3.84 1.632-6.336 1.632Zm.024-4.44c1.344 0 2.448-.368 3.312-1.104.88-.736 1.528-1.744 1.944-3.024.432-1.28.648-2.736.648-4.368 0-1.52-.192-2.92-.576-4.2-.368-1.28-.992-2.304-1.872-3.072-.864-.784-2.016-1.176-3.456-1.176-1.36 0-2.488.36-3.384 1.08-.88.704-1.544 1.696-1.992 2.976-.432 1.264-.648 2.728-.648 4.392 0 1.504.192 2.904.576 4.2.4 1.28 1.04 2.32 1.92 3.12.88.784 2.056 1.176 3.528 1.176Zm21.404-20.856V53h-5.616V28.184h5.616Zm.072-9.864v5.52h-5.784v-5.52h5.784ZM149.367 53V28.184h5.712v3.552c.384-.64.904-1.256 1.56-1.848.672-.592 1.496-1.072 2.472-1.44.976-.368 2.12-.552 3.432-.552 1.536 0 2.96.304 4.272.912 1.328.608 2.392 1.56 3.192 2.856.816 1.296 1.224 2.968 1.224 5.016V53h-5.856V37.376c0-1.632-.448-2.84-1.344-3.624-.896-.8-2.024-1.2-3.384-1.2a7.29 7.29 0 0 0-2.64.48c-.832.304-1.512.776-2.04 1.416-.512.624-.768 1.408-.768 2.352V53h-5.832Zm36.981.48c-2.368 0-4.432-.504-6.192-1.512-1.76-1.024-3.128-2.488-4.104-4.392-.96-1.904-1.44-4.192-1.44-6.864 0-2.592.464-4.864 1.392-6.816.944-1.952 2.296-3.472 4.056-4.56 1.76-1.088 3.864-1.632 6.312-1.632 2.368 0 4.424.52 6.168 1.56 1.744 1.04 3.088 2.528 4.032 4.464.96 1.936 1.44 4.264 1.44 6.984 0 2.512-.456 4.728-1.368 6.648-.896 1.904-2.216 3.4-3.96 4.488-1.728 1.088-3.84 1.632-6.336 1.632Zm.024-4.44c1.344 0 2.448-.368 3.312-1.104.88-.736 1.528-1.744 1.944-3.024.432-1.28.648-2.736.648-4.368 0-1.52-.192-2.92-.576-4.2-.368-1.28-.992-2.304-1.872-3.072-.864-.784-2.016-1.176-3.456-1.176-1.36 0-2.488.36-3.384 1.08-.88.704-1.544 1.696-1.992 2.976-.432 1.264-.648 2.728-.648 4.392 0 1.504.192 2.904.576 4.2.4 1.28 1.04 2.32 1.92 3.12.88.784 2.056 1.176 3.528 1.176Zm24.623 4.44c-1.728 0-3.368-.272-4.92-.816-1.536-.56-2.832-1.432-3.888-2.616-1.04-1.184-1.696-2.712-1.968-4.584h5.136c.224.912.616 1.656 1.176 2.232.576.576 1.256 1 2.04 1.272a7.685 7.685 0 0 0 2.4.384c1.488 0 2.688-.256 3.6-.768.928-.512 1.392-1.304 1.392-2.376 0-.784-.256-1.408-.768-1.872-.512-.464-1.328-.816-2.448-1.056l-4.728-1.08c-2.096-.464-3.784-1.232-5.064-2.304-1.264-1.072-1.904-2.584-1.92-4.536-.016-1.472.352-2.784 1.104-3.936.752-1.152 1.872-2.056 3.36-2.712 1.488-.672 3.328-1.008 5.52-1.008 2.896 0 5.216.648 6.96 1.944 1.744 1.28 2.64 3.112 2.688 5.496h-4.968c-.176-1.072-.68-1.904-1.512-2.496-.832-.608-1.912-.912-3.24-.912-1.376 0-2.504.264-3.384.792-.88.528-1.32 1.336-1.32 2.424 0 .752.336 1.344 1.008 1.776.672.432 1.68.8 3.024 1.104l4.464 1.08c1.28.32 2.328.752 3.144 1.296.816.544 1.456 1.144 1.92 1.8.464.64.784 1.304.96 1.992.192.672.288 1.296.288 1.872 0 1.6-.416 2.968-1.248 4.104-.816 1.12-1.976 1.984-3.48 2.592-1.504.608-3.28.912-5.328.912Z"/></svg>