<svg width="124" height="36" viewBox="0 0 124 36" fill="none" xmlns="http://www.w3.org/2000/svg">
<path d="M21.8683 35.583C20.6223 35.8559 19.3279 35.9997 17.9999 35.9997C14.3549 35.9997 10.963 34.9163 8.12855 33.054C7.42494 32.0476 7.10926 31.4935 6.87898 31.0894C6.76488 30.8892 6.67175 30.7257 6.56278 30.5623C5.48906 28.8355 4.92728 26.6174 4.80478 24.0113C4.4253 15.9363 9.33278 10.7798 14.3461 9.93346C17.524 9.39695 20.0496 9.94028 21.9866 10.9762C20.2741 10.4998 18.2326 10.4712 15.9053 11.1374C10.2636 12.9558 8.38284 18.4852 9.18894 24.6085C10.5957 32.2811 18.1187 35.0311 21.8683 35.583Z" fill="url(#paint0_linear_15_32)"/>
<path d="M5.79919 31.235C4.74978 29.3716 3.79946 26.5912 3.68071 24.0649C3.27786 15.4924 8.51664 9.7774 14.1585 8.82492C21.8491 7.52656 26.1246 12.0794 27.5985 15.4586C27.6602 15.4171 27.6852 15.3348 27.6527 15.264C25.2293 9.99435 20.2169 6.37563 14.4271 6.37563C7.85277 6.37563 1.98661 11.0916 0 18.1004C0.028214 23.2941 2.25599 27.9669 5.79919 31.235Z" fill="url(#paint1_linear_15_32)"/>
<path d="M28.1246 32.8843C26.8263 33.7692 25.4062 34.4887 23.8946 35.0124C23.1688 34.886 22.3647 34.7286 21.7985 34.6178C21.5302 34.5653 21.3152 34.5232 21.1875 34.4998C17.7635 33.8744 11.6415 31.6681 10.3003 24.4334C9.9214 21.5244 10.1928 18.8466 11.1539 16.7225C12.1007 14.6299 13.7348 13.0257 16.2268 12.2158C19.1232 11.4267 21.5234 11.8178 23.3063 12.7753C22.8674 12.6828 22.4138 12.6343 21.9496 12.6343C18.0919 12.6343 14.9645 15.9849 14.9645 20.1182C14.9645 21.7686 15.4632 23.2943 16.3078 24.5316C16.3078 24.5316 18.7257 29.0989 25.3078 28.6907C31.1767 28.3267 34.2244 23.0624 34.5876 21.1179C34.7764 20.1074 34.8751 19.0652 34.8751 17.9999C34.8751 8.68016 27.32 1.12499 18.0002 1.12499C10.9479 1.12499 4.90605 5.45106 2.38354 11.5942C1.53151 12.7042 0.797846 13.9347 0.206665 15.2653C1.52404 6.62202 8.98879 0 18.0002 0C27.9413 0 36.0001 8.05884 36.0001 17.9999C36.0001 24.1869 32.8786 29.6444 28.1246 32.8843Z" fill="url(#paint2_linear_15_32)"/>
<path d="M46 32H50.3419V24.8894C50.7308 25.396 51.2555 25.7985 51.9158 26.0971C52.5852 26.3866 53.3721 26.5313 54.2767 26.5313C55.9592 26.5313 57.325 25.9207 58.3743 24.6994C59.4236 23.469 59.9482 21.8225 59.9482 19.7599V19.3257C59.9482 17.2359 59.4236 15.5939 58.3743 14.3998C57.3341 13.2056 55.9546 12.6086 54.236 12.6086C53.3405 12.6086 52.5354 12.7895 51.8208 13.1514C51.1062 13.5042 50.5906 13.9475 50.274 14.4812H50.2198L50.179 12.9207H46V32ZM50.3419 21.6868V17.453C50.5409 17.0007 50.8529 16.6026 51.2781 16.2589C51.7123 15.9151 52.2505 15.7432 52.8927 15.7432C53.7792 15.7432 54.4395 16.0463 54.8737 16.6524C55.3079 17.2495 55.525 18.0863 55.525 19.1628V19.9499C55.525 21.0174 55.3079 21.8678 54.8737 22.501C54.4486 23.1253 53.7882 23.4374 52.8927 23.4374C52.2776 23.4374 51.7439 23.2655 51.2917 22.9217C50.8484 22.5689 50.5318 22.1573 50.3419 21.6868Z" fill="#333333"/>
<path d="M62.1192 26.2599H66.5425V18.0637C66.8319 17.4666 67.2435 16.9826 67.7772 16.6117C68.3109 16.2408 68.8807 16.0553 69.4868 16.0553C69.7491 16.0553 69.9843 16.0689 70.1923 16.096C70.4094 16.1232 70.5994 16.1639 70.7622 16.2182V12.785C70.6718 12.7488 70.518 12.7126 70.3009 12.6764C70.0838 12.6402 69.8577 12.6221 69.6225 12.6221C68.9441 12.6221 68.3335 12.8076 67.7907 13.1785C67.248 13.5494 66.8183 14.0153 66.5018 14.5762H66.461L66.4068 12.9207H62.1192V26.2599Z" fill="#333333"/>
<path d="M72.4718 26.2599H76.8815V12.9207H72.4718V26.2599ZM72.1869 8.72756C72.1869 9.36082 72.3995 9.8991 72.8246 10.3424C73.2588 10.7857 73.8739 11.0073 74.6699 11.0073C75.4659 11.0073 76.081 10.7857 76.5152 10.3424C76.9494 9.8991 77.1665 9.36082 77.1665 8.72756C77.1665 8.08525 76.9539 7.54697 76.5288 7.11273C76.1036 6.6785 75.4885 6.46138 74.6835 6.46138C73.8875 6.46138 73.2724 6.6785 72.8382 7.11273C72.404 7.54697 72.1869 8.08525 72.1869 8.72756Z" fill="#333333"/>
<path d="M79.7852 26.2599H84.1406V17.6023C84.3667 17.0685 84.6743 16.6479 85.0632 16.3403C85.4522 16.0327 85.909 15.8789 86.4336 15.8789C87.0397 15.8789 87.501 16.0508 87.8176 16.3946C88.1432 16.7383 88.3061 17.3038 88.3061 18.0908V26.2599H92.6751V17.5887C92.9012 17.0731 93.2088 16.6614 93.5977 16.3539C93.9957 16.0372 94.457 15.8789 94.9817 15.8789C95.5877 15.888 96.0491 16.0644 96.3657 16.4081C96.6823 16.7429 96.8406 17.2947 96.8406 18.0637V26.2599H101.196V17.7651C101.196 15.9106 100.789 14.5898 99.9748 13.8027C99.1698 13.0066 98.0979 12.6086 96.7591 12.6086C95.8003 12.6086 94.9093 12.8121 94.0862 13.2192C93.2721 13.6263 92.6253 14.2098 92.1459 14.9697H92.1052C91.8157 14.2008 91.3228 13.6173 90.6263 13.2192C89.9388 12.8121 89.1156 12.6086 88.1568 12.6086C87.2794 12.6086 86.4879 12.7895 85.7824 13.1514C85.0858 13.5132 84.5205 14.0153 84.0863 14.6576H84.032L83.9913 12.9207H79.7852V26.2599Z" fill="#333333"/>
<path d="M103.299 22.3789C103.299 23.7359 103.724 24.7582 104.575 25.4457C105.434 26.1333 106.551 26.477 107.926 26.477C109.084 26.477 110.043 26.2735 110.802 25.8664C111.571 25.4593 112.105 25.0024 112.403 24.4958C112.431 24.8215 112.485 25.1427 112.566 25.4593C112.657 25.7759 112.761 26.0428 112.878 26.2599H117.166V26.0564C116.985 25.7035 116.845 25.2829 116.745 24.7944C116.655 24.2968 116.61 23.7766 116.61 23.2338V17.263C116.61 15.6256 116.09 14.4315 115.049 13.6806C114.018 12.9297 112.517 12.5543 110.545 12.5543C108.591 12.5543 107.026 12.9478 105.85 13.7349C104.683 14.5129 104.1 15.5216 104.1 16.761V17.0324L108.211 17.0459V16.8017C108.211 16.3222 108.378 15.9377 108.713 15.6482C109.048 15.3587 109.572 15.214 110.287 15.214C111.001 15.214 111.508 15.3859 111.806 15.7296C112.105 16.0734 112.254 16.5438 112.254 17.1409V17.9415H109.269C107.505 17.9506 106.067 18.3396 104.954 19.1086C103.851 19.8775 103.299 20.9676 103.299 22.3789ZM107.627 22.0397C107.627 21.4426 107.844 21.0038 108.279 20.7234C108.722 20.4429 109.405 20.3027 110.327 20.3027H112.254V21.4426C112.254 22.0849 111.992 22.6503 111.467 23.1388C110.952 23.6183 110.332 23.858 109.608 23.858C108.939 23.858 108.441 23.6997 108.116 23.3831C107.79 23.0574 107.627 22.6096 107.627 22.0397Z" fill="#333333"/>
<path d="M119.527 26.2599H123.909V6H119.527V26.2599Z" fill="#333333"/>
<defs>
<linearGradient id="paint0_linear_15_32" x1="11.2413" y1="14.9124" x2="11.2138" y2="30.9099" gradientUnits="userSpaceOnUse">
<stop offset="0.0297309" stop-color="#FA3C3C"/>
<stop offset="1" stop-color="#BC1870"/>
</linearGradient>
<linearGradient id="paint1_linear_15_32" x1="8.79045" y1="7.31563" x2="7.89914" y2="23.3177" gradientUnits="userSpaceOnUse">
<stop stop-color="#FF9F2F"/>
<stop offset="1" stop-color="#FA3C3C"/>
</linearGradient>
<linearGradient id="paint2_linear_15_32" x1="21.375" y1="35.6248" x2="21.4244" y2="17.0626" gradientUnits="userSpaceOnUse">
<stop stop-color="#5B09AD"/>
<stop offset="1" stop-color="#BC1870"/>
</linearGradient>
</defs>
</svg>
