<svg width="213" height="65" viewBox="0 0 213 65" fill="none" xmlns="http://www.w3.org/2000/svg">
<path fill-rule="evenodd" clip-rule="evenodd" d="M19.8402 12.8981L20.4181 0.570312H13.1991L13.777 12.8983L2.23078 8.53906L0 15.4047L11.9035 18.6647L4.18983 28.2985L10.0301 32.5417L16.8091 22.228L23.5878 32.5413L29.4281 28.2981L21.7145 18.6644L33.6167 15.4047L31.3859 8.53908L19.8402 12.8981ZM16.8085 17.071L16.8085 17.0707H16.8082L16.808 17.0714L16.8085 17.071Z" fill="#0A0A0A"/>
<path d="M162.618 18.0344V21.7971H163.133C163.776 20.4893 164.708 19.5138 165.93 18.8706C167.153 18.2274 168.793 17.9058 170.851 17.9058H175.546V25.6242H170.819C169.039 25.6242 167.581 25.9243 166.445 26.5246C165.309 27.1035 164.451 28.0254 163.872 29.2904C163.315 30.5554 163.036 32.1741 163.036 34.1466V51.7059H153.549V18.0344H162.618Z" fill="#0A0A0A"/>
<path d="M118.861 27.7152C119.096 25.6141 119.858 23.7809 121.144 22.2158C122.452 20.6293 124.231 19.4072 126.483 18.5496C128.755 17.692 131.424 17.2632 134.49 17.2632C137.642 17.2632 140.333 17.7456 142.563 18.7104C144.792 19.6752 146.507 21.1545 147.708 23.1485C148.909 25.1209 149.509 27.6187 149.509 30.6418V51.7066H140.762V48.2333H140.247C139.539 49.391 138.36 50.3558 136.709 51.1277C135.059 51.8995 132.797 52.2854 129.924 52.2854C127.351 52.2854 125.1 51.8781 123.17 51.0634C121.24 50.2272 119.74 49.0373 118.668 47.4936C117.617 45.9285 117.092 44.0846 117.092 41.9621C117.092 38.7675 118.175 36.3019 120.34 34.5653C122.527 32.8286 125.432 31.7459 129.055 31.3171L140.44 29.9021V29.291C140.44 27.4901 139.936 26.1715 138.928 25.3354C137.921 24.4778 136.399 24.049 134.362 24.049C132.325 24.049 130.738 24.4456 129.602 25.2389C128.466 26.0107 127.823 27.1578 127.672 28.68H118.861V27.7152ZM126.515 41.4154C126.515 42.6374 126.997 43.6022 127.962 44.3098C128.927 45.0173 130.277 45.371 132.014 45.371C133.665 45.371 135.123 45.0816 136.388 44.5027C137.653 43.9238 138.639 43.0555 139.347 41.8978C140.075 40.74 140.44 39.325 140.44 37.6526V36.2698L131.21 37.4918C129.752 37.6848 128.605 38.1029 127.769 38.7461C126.933 39.3893 126.515 40.279 126.515 41.4154Z" fill="#0A0A0A"/>
<path d="M79.6758 18.0347H88.9057V21.3151H89.4203C90.578 19.9429 92.0145 18.9459 93.7297 18.3242C95.4449 17.681 97.4067 17.3594 99.615 17.3594C102.509 17.3594 105.114 18.0133 107.43 19.3211C109.745 20.6075 111.579 22.5693 112.929 25.2064C114.28 27.8221 114.955 31.0488 114.955 34.8866C114.955 38.7244 114.28 41.9618 112.929 44.5989C111.579 47.2146 109.745 49.1656 107.43 50.452C105.114 51.7384 102.509 52.3816 99.615 52.3816C97.471 52.3816 95.5628 52.0922 93.8905 51.5133C92.2182 50.9344 90.8032 50.0018 89.6454 48.7154H89.163V64.5703H79.6758V18.0347ZM88.7449 34.8866C88.7449 37.052 89.0879 38.9066 89.774 40.4503C90.4601 41.9725 91.4249 43.1303 92.6684 43.9236C93.9334 44.6954 95.402 45.0813 97.0744 45.0813C98.7467 45.0813 100.205 44.6954 101.448 43.9236C102.713 43.1303 103.689 41.9725 104.375 40.4503C105.061 38.9066 105.404 37.052 105.404 34.8866C105.404 32.6997 105.061 30.8451 104.375 29.3229C103.689 27.8007 102.713 26.6429 101.448 25.8496C100.205 25.0563 98.7467 24.6597 97.0744 24.6597C95.402 24.6597 93.9334 25.0563 92.6684 25.8496C91.4249 26.6429 90.4601 27.8007 89.774 29.3229C89.0879 30.8451 88.7449 32.6997 88.7449 34.8866Z" fill="#0A0A0A"/>
<path d="M37.6852 18.0348C37.6852 15.3548 38.3713 13.0071 39.7435 10.9917C41.1371 8.97635 43.1953 7.41123 45.9182 6.29635C48.6625 5.18146 51.9964 4.62402 55.92 4.62402C59.8864 4.62402 63.2739 5.2029 66.0825 6.36067C68.8912 7.51843 71.0673 9.18003 72.611 11.3455C74.1547 13.5109 75.0123 16.0837 75.1838 19.0639V20.0287H65.9861C65.9003 18.142 65.4179 16.6197 64.5389 15.462C63.6813 14.3042 62.5235 13.4787 61.0656 12.9856C59.6291 12.4711 57.946 12.2138 56.0164 12.2138C54.194 12.2138 52.6289 12.4282 51.3211 12.857C50.0132 13.2858 49.0056 13.9183 48.298 14.7544C47.612 15.5692 47.2689 16.5661 47.2689 17.7453C47.2689 18.9245 47.5798 19.9 48.2016 20.6719C48.8233 21.4437 49.7238 22.0655 50.903 22.5372C52.0822 22.9874 53.5723 23.3412 55.3732 23.5984L60.5188 24.3381C63.8849 24.8098 66.6829 25.5924 68.9126 26.6858C71.1638 27.7792 72.8683 29.2693 74.0261 31.156C75.2053 33.0428 75.7949 35.369 75.7949 38.1348C75.7949 41.0077 75.0766 43.5269 73.6401 45.6924C72.2037 47.8364 70.0704 49.5087 67.2403 50.7093C64.4317 51.8885 61.0012 52.4781 56.9491 52.4781C52.8755 52.4781 49.3272 51.8778 46.3041 50.6772C43.2811 49.4551 40.9334 47.7399 39.2611 45.5316C37.6102 43.3018 36.7204 40.6968 36.5918 37.7167V36.7519H45.7896C46.0254 39.5605 47.1188 41.6188 49.0699 42.9266C51.0424 44.2344 53.6152 44.8884 56.7883 44.8884C58.7822 44.8884 60.4867 44.6525 61.9017 44.1809C63.3168 43.6877 64.3888 42.9695 65.1177 42.0261C65.8467 41.0828 66.2112 39.9464 66.2112 38.6172C66.2112 37.3308 65.9003 36.2802 65.2785 35.4655C64.6568 34.6508 63.7456 34.0183 62.5449 33.568C61.3443 33.1178 59.7792 32.7533 57.8496 32.4746L52.704 31.7349C49.4451 31.2632 46.7008 30.4592 44.471 29.3229C42.2412 28.1652 40.5475 26.6536 39.3897 24.7884C38.2534 22.9016 37.6852 20.6504 37.6852 18.0348Z" fill="#0A0A0A"/>
<path d="M201.782 18.0349L188.693 30.4165H188.179V5.396H178.691V51.7064H188.179V38.2314H188.693L201.557 51.7064H212.749V50.7416L196.154 34.0827L212.652 18.9997V18.0349H201.782Z" fill="#0A0A0A"/>
</svg>
