<?xml version="1.0" encoding="utf-8"?>
<svg xmlns="http://www.w3.org/2000/svg" width="111" height="32" viewBox="0 0 111 32" fill="none">
    <path d="M10.3721 0.00758106L10.2064 6.17093L16.0202 4.14688L17.0937 7.49147L11.1906 9.23745L14.9322 14.181L12.0419 16.1707L8.58196 11.1223L5.06946 16.1775L2.23218 14.1108L5.98548 9.22065L0.0943048 7.43676L1.188 4.09878L6.98944 6.16054L6.86344 0.0011846L10.3721 0.00758106Z" fill="white"/>
    <path d="M97.1979 0.899414V25.2392H92.2178V0.899414H97.1979ZM97.468 14.0497L104.339 7.54216H110.045V8.04924L101.385 15.9766L110.095 24.7322V25.2392H104.221L97.468 18.157H96.7927V14.0497H97.468Z" fill="white"/>
    <path d="M83.7802 7.54222V9.51983H84.0503C84.3879 8.83246 84.8775 8.31974 85.519 7.98169C86.1605 7.64364 87.0214 7.47461 88.1019 7.47461H90.5666V11.5312H88.085C87.1509 11.5312 86.3856 11.689 85.7891 12.0045C85.1926 12.3088 84.7424 12.7933 84.4385 13.4582C84.1459 14.123 83.9996 14.9738 83.9996 16.0105V25.2393H79.0195V7.54222H83.7802Z" fill="white"/>
    <path d="M61.1477 12.6301C61.2715 11.5258 61.6711 10.5623 62.3463 9.73973C63.0329 8.90586 63.967 8.26356 65.1487 7.81283C66.3417 7.36209 67.7428 7.13672 69.3522 7.13672C71.0066 7.13672 72.419 7.39026 73.5895 7.89734C74.76 8.40442 75.6603 9.18194 76.2906 10.2299C76.9208 11.2666 77.2359 12.5794 77.2359 14.1682V25.2395H72.6441V23.414H72.374C72.0026 24.0225 71.3836 24.5296 70.517 24.9352C69.6505 25.3409 68.4631 25.5437 66.955 25.5437C65.6045 25.5437 64.4228 25.3296 63.4099 24.9014C62.397 24.4619 61.6092 23.8365 61.0464 23.0252C60.495 22.2026 60.2192 21.2335 60.2192 20.118C60.2192 18.439 60.7876 17.1431 61.9243 16.2304C63.0722 15.3176 64.5972 14.7486 66.4992 14.5232L72.4753 13.7795V13.4583C72.4753 12.5118 72.2108 11.8188 71.6819 11.3793C71.1529 10.9285 70.3539 10.7032 69.2847 10.7032C68.2155 10.7032 67.3827 10.9116 66.7862 11.3286C66.1897 11.7342 65.8521 12.3371 65.7733 13.1372H61.1477V12.6301ZM65.1656 19.8306C65.1656 20.4729 65.4188 20.98 65.9252 21.3519C66.4317 21.7237 67.1407 21.9096 68.0523 21.9096C68.9189 21.9096 69.6842 21.7575 70.3482 21.4533C71.0122 21.149 71.5299 20.6927 71.9013 20.0842C72.284 19.4757 72.4753 18.7319 72.4753 17.853V17.1262L67.6303 17.7685C66.865 17.8699 66.2629 18.0896 65.8239 18.4277C65.385 18.7658 65.1656 19.2334 65.1656 19.8306Z" fill="white"/>
    <path d="M40.5796 7.54246H45.4246V9.26653H45.6947C46.3025 8.54535 47.0565 8.02136 47.9569 7.69458C48.8572 7.35653 49.887 7.1875 51.0462 7.1875C52.5656 7.1875 53.933 7.53119 55.1485 8.21856C56.3639 8.89467 57.3262 9.92573 58.0352 11.3118C58.7442 12.6865 59.0988 14.3824 59.0988 16.3995C59.0988 18.4165 58.7442 20.118 58.0352 21.5041C57.3262 22.8788 56.3639 23.9042 55.1485 24.5803C53.933 25.2564 52.5656 25.5945 51.0462 25.5945C49.9208 25.5945 48.9191 25.4424 48.0413 25.1381C47.1634 24.8339 46.4206 24.3437 45.8129 23.6676H45.5597V32.0006H40.5796V7.54246ZM45.3402 16.3995C45.3402 17.5376 45.5203 18.5123 45.8804 19.3236C46.2406 20.1237 46.747 20.7322 47.3998 21.1491C48.0638 21.5548 48.8347 21.7576 49.7126 21.7576C50.5904 21.7576 51.3557 21.5548 52.0085 21.1491C52.6725 20.7322 53.1846 20.1237 53.5447 19.3236C53.9048 18.5123 54.0849 17.5376 54.0849 16.3995C54.0849 15.2501 53.9048 14.2754 53.5447 13.4753C53.1846 12.6752 52.6725 12.0667 52.0085 11.6498C51.3557 11.2329 50.5904 11.0244 49.7126 11.0244C48.8347 11.0244 48.0638 11.2329 47.3998 11.6498C46.747 12.0667 46.2406 12.6752 45.8804 13.4753C45.5203 14.2754 45.3402 15.2501 45.3402 16.3995Z" fill="white"/>
    <path d="M18.5378 7.54255C18.5378 6.134 18.898 4.9001 19.6183 3.84087C20.3498 2.78164 21.4302 1.95904 22.8595 1.37308C24.3001 0.78712 26.0502 0.494141 28.1097 0.494141C30.1918 0.494141 31.97 0.798388 33.4443 1.40688C34.9187 2.01538 36.061 2.88869 36.8713 4.0268C37.6816 5.16491 38.1318 6.51712 38.2219 8.08344V8.59052H33.3937C33.3487 7.59889 33.0955 6.79883 32.634 6.19034C32.1838 5.58184 31.5761 5.14801 30.8108 4.88883C30.0568 4.61839 29.1733 4.48317 28.1604 4.48317C27.2038 4.48317 26.3822 4.59585 25.6957 4.82122C25.0091 5.04659 24.4802 5.37901 24.1088 5.81848C23.7486 6.24668 23.5686 6.77066 23.5686 7.39043C23.5686 8.01019 23.7318 8.52291 24.0581 8.92857C24.3845 9.33424 24.8572 9.66102 25.4762 9.90892C26.0952 10.1456 26.8774 10.3315 27.8228 10.4667L30.5238 10.8555C32.2908 11.1034 33.7595 11.5147 34.9299 12.0894C36.1116 12.6641 37.0064 13.4472 37.6141 14.4388C38.2331 15.4305 38.5426 16.6531 38.5426 18.1067C38.5426 19.6167 38.1656 20.9407 37.4115 22.0788C36.6575 23.2057 35.5377 24.0846 34.0521 24.7157C32.5778 25.3354 30.777 25.6453 28.65 25.6453C26.5116 25.6453 24.649 25.3298 23.0621 24.6988C21.4753 24.0565 20.2429 23.155 19.365 21.9943C18.4985 20.8224 18.0314 19.4533 17.9639 17.887V17.3799H22.792C22.9158 18.8561 23.4898 19.9378 24.5139 20.6252C25.5494 21.3126 26.8999 21.6563 28.5655 21.6563C29.6122 21.6563 30.5069 21.5323 31.2497 21.2844C31.9925 21.0252 32.5552 20.6478 32.9379 20.1519C33.3205 19.6561 33.5119 19.0589 33.5119 18.3603C33.5119 17.6842 33.3487 17.132 33.0223 16.7038C32.6959 16.2756 32.2176 15.9432 31.5874 15.7065C30.9571 15.4699 30.1355 15.2783 29.1226 15.1318L26.4216 14.7431C24.7109 14.4952 23.2703 14.0726 22.0999 13.4754C20.9294 12.8669 20.0403 12.0725 19.4326 11.0921C18.8361 10.1005 18.5378 8.9173 18.5378 7.54255Z" fill="white"/>
</svg>