<svg width="1000" height="154" viewBox="0 0 1000 154" fill="none" xmlns="http://www.w3.org/2000/svg">
<g clip-path="url(#clip0_4233_1168)">
<path d="M95.796 149.917L156.343 3.77344H108.029L78.1713 82.4814L48.3122 3.77344H0L60.5466 149.917H95.796Z" fill="white"/>
<path d="M420.31 109.415H364.325V3.77344H320.781V149.917H420.31V109.415Z" fill="white"/>
<path d="M443.741 149.917H487.285V43.4413H525.438V3.77344H405.588V43.4413H443.741V149.917Z" fill="white"/>
<path d="M568.776 3.77344L508.644 149.918H554.676L562.348 130.918H611.282L618.954 149.918H664.986L604.854 3.77344H568.776ZM573.96 96.6779L586.816 63.2747L599.671 96.6779H573.96Z" fill="white"/>
<path d="M743.786 69.3297L764.313 96.6779C758.715 106.492 748.97 112.337 736.321 112.337C714.963 112.337 702.73 96.2608 702.73 76.8445C702.73 57.4282 714.963 41.3538 736.321 41.3538C746.481 41.3538 754.567 44.6936 760.581 51.1657L792.927 22.5621C778.827 8.36559 758.922 0.0145304 736.321 0.0145304C691.326 -0.82068 657.735 34.4625 658.357 76.8445C657.735 119.226 691.326 154.51 736.321 153.674C780.072 154.51 814.077 119.226 813.248 76.8445C813.248 74.5485 813.041 72.0439 812.834 69.3297H743.786Z" fill="white"/>
<path d="M928.539 44.2755V3.77344H825.692V149.917H928.539V109.415H869.236V93.7552H921.904V59.9338H869.236V44.2755H928.539Z" fill="white"/>
<path d="M305.639 76.8443C306.11 44.7153 286.91 16.6821 257.995 5.35509L245.593 45.3451H264.427L223.617 119.581V63.5863L199.847 63.5842L208.392 1.97046C173.431 9.87628 149.182 40.7822 149.712 76.8443C149.089 119.226 182.681 154.51 227.676 153.674C272.67 154.51 306.26 119.226 305.639 76.8443Z" fill="white"/>
<path fill-rule="evenodd" clip-rule="evenodd" d="M976.97 107.746C966.834 107.746 958.617 115.963 958.617 126.099C958.617 136.236 966.834 144.453 976.97 144.453C987.107 144.453 995.324 136.236 995.324 126.099C995.324 115.963 987.107 107.746 976.97 107.746ZM953.94 126.099C953.94 113.38 964.251 103.07 976.97 103.07C989.689 103.07 1000 113.38 1000 126.099C1000 138.818 989.689 149.129 976.97 149.129C964.251 149.129 953.94 138.818 953.94 126.099Z" fill="white"/>
<path d="M975.707 124.23C976.993 124.23 977.929 123.972 978.49 123.481C979.051 123.014 979.355 122.219 979.355 121.097C979.355 119.998 979.051 119.226 978.49 118.735C977.929 118.268 976.993 118.034 975.707 118.034H973.089V124.23H975.707ZM973.089 128.508V137.627H966.87V113.521H976.362C979.542 113.521 981.856 114.059 983.329 115.135C984.826 116.187 985.55 117.87 985.55 120.185C985.55 121.775 985.176 123.084 984.405 124.113C983.633 125.118 982.488 125.89 980.921 126.357C981.786 126.568 982.534 127.012 983.212 127.69C983.891 128.368 984.569 129.397 985.247 130.8L988.637 137.627H982.02L979.074 131.641C978.49 130.449 977.882 129.607 977.274 129.186C976.666 128.742 975.848 128.508 974.842 128.508H973.089Z" fill="white"/>
</g>
<defs>
<clipPath id="clip0_4233_1168">
<rect width="1000" height="154" fill="white"/>
</clipPath>
</defs>
</svg>
