<?xml version="1.0" encoding="UTF-8"?><svg id="b" xmlns="http://www.w3.org/2000/svg" viewBox="0 0 594.1349 70.0989"><defs><style>.d{fill:#dfab29;stroke-width:0px;}</style></defs><g id="c"><path class="d" d="m228.842,24.1363c-10.6074,0-17.2704,6.7314-17.2704,17.6104,0,10.5391,6.663,17.0664,17.2704,17.0664,9.1787,0,15.2979-4.5557,15.5703-12.0342h-6.8672c-.3408,3.9434-3.6719,6.1191-8.5674,6.1191-5.7119,0-9.3154-3.4678-9.7236-9.9268h25.1582v-2.7197c0-10.4717-6.0518-16.1152-15.5703-16.1152Zm8.7031,14.2109h-18.0869c.8838-5.5757,4.2158-8.2954,9.4512-8.2954,5.5078,0,8.6357,2.7876,8.6357,7.8198v.4756Zm-74.7294-14.2109c-9.5869,0-15.4346,4.0117-15.4346,10.7432,0,.6118.0674,1.4961.1357,1.9717h7.0029c-.0674-.5439-.0674-1.0879-.0674-1.292,0-3.7393,2.9238-5.7109,8.0908-5.7109,5.916,0,8.8389,2.2437,8.8389,7.2754v2.3799h-12.4424c-8.9746,0-12.5791,4.0117-12.5791,9.1104,0,6.5273,5.0996,10.1992,12.7832,10.1992,7.4111,0,11.4229-2.9912,12.5107-7.9551h.0684c0,2.7197-.2041,5.7793-.3408,7.4111h7.6152v-20.4658c0-8.8394-5.9834-13.667-16.1816-13.667Zm8.5664,20.6025c0,5.167-4.0791,8.3633-10.6748,8.3633-4.623,0-7.3428-1.7686-7.3428-4.8281,0-2.6514,1.9033-4.1475,6.2549-4.1475h11.7627v.6123Zm-101.3159-25.0414c-.0345-1.2794-.114-2.9695-.4241-4.6955-.3352-1.8662-.8921-3.5469-1.7024-5.1384-.8398-1.65-1.9305-3.1514-3.2415-4.4624-1.3113-1.3113-2.813-2.4021-4.4636-3.2422-1.5903-.8097-3.2703-1.3663-5.1353-1.7016-1.7263-.3102-3.4175-.3898-4.6979-.4244-.6396-.0172-1.2787-.0248-1.9181-.0287-.6265-.0038-1.2527-.0041-1.8789-.0041h-23.1099c-.6262,0-1.2523.0003-1.8785.0041-.6398.0039-1.2788.0115-1.9178.0287-1.281.0347-2.9722.1142-4.6982.4244-1.8652.3353-3.5449.8919-5.1357,1.7017-1.6503.8401-3.152,1.9308-4.4631,3.242-1.3113,1.3113-2.4019,2.8127-3.2419,4.4628-.8101,1.5915-1.3669,3.2722-1.7021,5.1381-.3101,1.7261-.3895,3.4163-.4241,4.696-.0173.6393-.0249,1.2789-.0288,1.9188-.0042.6841-.0042,1.3689-.0042,2.0536v22.7587c0,.6848,0,1.3695.0043,2.0543.0038.6392.0114,1.2787.0287,1.9183.0345,1.2794.114,2.9697.4241,4.6956.3352,1.8659.892,3.5466,1.7021,5.1381.8403,1.6504,1.9309,3.1519,3.2419,4.4628,1.311,1.3112,2.813,2.4021,4.4636,3.2422,1.5901.8095,3.2699,1.3661,5.135,1.7015,1.7263.3103,3.4175.3898,4.6981.4244.6388.0173,1.278.0248,1.9175.0288.641.0038,1.2809.0041,1.9208.0041h23.0269c.6399,0,1.2798-.0003,1.9197-.0041.6405-.004,1.2797-.0115,1.9189-.0288,1.2803-.0346,2.9714-.1141,4.6978-.4244,1.8652-.3354,3.545-.892,5.1355-1.7017,1.6503-.8399,3.1521-1.9308,4.4634-3.2421,1.3107-1.3107,2.4014-2.8121,3.2416-4.4625.8103-1.5916,1.3671-3.2723,1.7023-5.1382.3101-1.726.3895-3.4163.4241-4.6959.0173-.639.0249-1.2782.0288-1.9175.0042-.6851.0042-1.3689.0042-2.0527v-22.7629c0-.6838,0-1.3677-.0042-2.0516-.0039-.6406-.0115-1.2797-.0288-1.919Zm-4.967,26.6018c0,.7178.0002,1.4355-.004,2.1534-.0038.6046-.0107,1.2091-.0271,1.8136-.0355,1.3166-.1132,2.6448-.347,3.9468-.2375,1.3221-.6254,2.5526-1.2369,3.7538-.6007,1.1798-1.3854,2.2595-2.3214,3.1956-.9363.9363-2.0161,1.7211-3.1962,2.3217-1.2006.6112-2.4304.9988-3.7518,1.2364-1.3025.2342-2.6311.3118-3.9482.3474-.6045.0164-1.209.0233-1.8137.027-.6298.0038-1.2598.004-1.8896.004h-23.0269c-.6299,0-1.2598-.0002-1.8896-.004-.6047-.0037-1.2092-.0107-1.8137-.027-1.3171-.0356-2.6458-.1132-3.9482-.3474-1.3214-.2375-2.5513-.6252-3.7518-1.2364-1.1801-.6006-2.2599-1.3854-3.1962-2.3217-.936-.9361-1.7207-2.0157-2.3215-3.1956-.6115-1.2012-.9993-2.4317-1.2368-3.7538-.2339-1.302-.3115-2.6302-.347-3.9468-.0164-.6045-.0233-1.209-.027-1.8136-.0044-.7178-.0042-1.4356-.0042-2.1534v-22.4995c0-.7178-.0002-1.4355.0042-2.1533.0037-.6047.0106-1.2092.027-1.8137.0355-1.3166.1132-2.6447.347-3.9468.2375-1.322.6254-2.5526,1.2368-3.7538.6008-1.1799,1.3855-2.2594,2.3215-3.1956.9363-.9363,2.0161-1.7211,3.1962-2.3217,1.2006-.6112,2.4304-.9988,3.7518-1.2364,1.3025-.2341,2.6311-.3118,3.9482-.3474.6045-.0163,1.209-.0233,1.8137-.027.616-.0037,1.2321-.004,1.8481-.004h23.1099c.6161,0,1.2322.0002,1.8481.004.6047.0037,1.2092.0107,1.8137.027,1.3171.0356,2.6458.1132,3.9482.3474,1.3214.2375,2.5513.6252,3.7518,1.2364,1.1801.6006,2.2599,1.3854,3.1962,2.3217.936.9362,1.7207,2.0157,2.3214,3.1956.6116,1.2012.9994,2.4318,1.2369,3.7538.2339,1.3021.3115,2.6302.347,3.9468.0164.6046.0233,1.209.0271,1.8137.0043.7178.004,1.4355.004,2.1533v22.4995Zm-16.3351-16.9889h-7.1931c-1.058,0-1.738-1.123-1.2478-2.0605l6.4568-12.3479c.3903-.7463-.1511-1.6403-.9933-1.6403h-18.2168c-.5312,0-.9896.3731-1.0974.8934l-4.646,22.4154c-.1443.6957.387,1.3483,1.0974,1.3483h6.5078c.7104,0,1.2417.6526,1.0975,1.3483l-3.8717,18.6802,22.9575-26.7866c.6233-.7271.1066-1.8502-.851-1.8502Zm150.0243,28.9588h7.6152V11.15h-7.6152v47.1191Zm-59.3008-44.7393l-10.0635,34.6084h-.2041l-9.791-34.3369h-8.1592l-9.9268,34.3369h-.2041l-10.1992-34.6084h-8.7705l14.0059,44.7393h8.8398l9.791-32.9766h.2041l9.5186,32.9766h8.9756l14.0742-44.7393h-8.0908Zm45.2939,44.7393h7.6152V11.15h-7.6152v47.1191Zm74.3193-41.2041h-6.3232l-.3398,5.0317c-.2041,1.9038-.6797,2.5835-1.9717,2.5835h-4.2842v6.1875h5.3037v15.4346c0,7.4111,3.6035,12.375,12.7822,12.375,2.7881,0,5.0996-.4756,6.1201-.8164v-6.0508c-.9521.2715-3.1279.6113-5.0322.6113-4.623,0-6.2549-2.1758-6.2549-6.5273v-15.0264h11.5586v-6.1875h-11.5586v-7.6152Zm227.9346,7.0713c-10.6748,0-17.542,6.6636-17.542,17.4062,0,10.6758,6.8672,17.2705,17.542,17.2705,10.7432,0,17.6104-6.5947,17.6104-17.2705,0-10.7427-6.8672-17.4062-17.6104-17.4062Zm0,28.4219c-6.1875,0-9.9268-4.2158-9.9268-11.0156,0-6.8672,3.7393-11.1504,9.9268-11.1504s9.9951,4.2832,9.9951,11.1504c0,6.7998-3.8076,11.0156-9.9951,11.0156Zm79.7627-28.4219c-7.8867,0-12.2383,3.4678-14.0059,9.5874h-.0684c.0684-1.8359.2041-5.7114.2041-7.3433v-15.2305h-7.6152v47.1191h7.6152v-15.9102c0-7.5474,4.2158-11.6953,10.9473-11.6953,6.0508,0,9.043,2.9922,9.043,8.2959v19.3096h7.6152v-21.0098c0-8.2954-5.2363-13.123-13.7354-13.123Zm-30.124,17.3389c-2.3799-1.3604-5.0996-1.8359-9.8594-2.3115-4.0791-.4082-7.2754-.748-8.9072-1.292-1.9717-.6807-2.3115-2.04-2.3115-3.4683,0-2.8555,2.9922-4.7593,8.2949-4.7593,5.5762,0,7.9551,2.1074,8.0234,6.459h6.8672c0-7.6152-4.623-11.9668-15.0947-11.9668-9.1104,0-15.6377,4.0801-15.6377,10.811,0,2.5845,1.0879,5.0317,2.9238,6.3921,2.0391,1.4951,5.5752,2.1758,10.8105,2.6514,3.7393.3398,6.9355.6797,8.5674,1.292,1.7676.6113,2.2432,1.7676,2.2432,3.0596,0,3.0596-2.7197,4.9639-8.9072,4.9639-6.5273,0-8.7705-2.3799-8.7705-6.2559h-6.8672c0,6.5957,4.1475,11.7627,15.7061,11.7627,10.7432,0,16.4541-4.0117,16.4541-10.8105,0-2.7197-1.292-5.3037-3.5352-6.5273Zm49.6416-28.2178v7.4795h7.8193v-7.4795h-7.8193Zm.0674,45.0117h7.6152V24.6802h-7.6152v33.5889Zm-161.9766-34.1328c-9.5869,0-15.4336,4.0117-15.4336,10.7432,0,.6118.0674,1.4961.1357,1.9717h7.0029c-.0674-.5439-.0674-1.0879-.0674-1.292,0-3.7393,2.9229-5.7109,8.0908-5.7109,5.915,0,8.8389,2.2437,8.8389,7.2754v2.3799h-12.4424c-8.9756,0-12.5791,4.0117-12.5791,9.1104,0,6.5273,5.0996,10.1992,12.7832,10.1992,7.4111,0,11.4229-2.9912,12.5107-7.9551h.0674c0,2.7197-.2041,5.7793-.3398,7.4111h7.6152v-20.4658c0-8.8394-5.9834-13.667-16.1826-13.667Zm8.5674,20.6025c0,5.167-4.0791,8.3633-10.6748,8.3633-4.623,0-7.3428-1.7686-7.3428-4.8281,0-2.6514,1.9033-4.1475,6.2549-4.1475h11.7627v.6123Zm-33.8633-8.5674c-2.7881-1.4961-7.1396-2.2441-11.8311-2.9917-3.876-.5439-8.9072-1.3599-10.8789-2.312-1.7676-.8159-2.6514-2.3115-2.6514-4.8271,0-4.0801,4.0107-6.8677,10.7422-6.8677,7.0039,0,10.6074,3.1279,10.6074,9.7231h7.3428c0-10.1992-4.8271-16.0464-18.0859-16.0464-11.6943,0-18.6982,5.7114-18.6982,13.8706,0,4.2158,1.7002,7.2754,4.4199,8.9751,2.4473,1.564,7.207,2.5835,11.6943,3.1958,3.876.5439,8.7031,1.1562,10.9473,2.04,2.1074.748,3.1279,2.1758,3.1279,4.623,0,3.6719-2.3115,7.0713-11.4229,7.0713-8.5674,0-11.2871-3.9434-11.2871-9.6543h-7.3438c0,8.1592,3.876,15.9775,18.6982,15.9775,15.2305,0,19.4463-6.7305,19.4463-13.9385,0-4.1475-1.7676-7.2754-4.8271-8.8389Zm56.8486-19.1064h-6.3232l-.3398,5.0317c-.2041,1.9038-.6807,2.5835-1.9717,2.5835h-4.2842v6.1875h5.3037v15.4346c0,7.4111,3.6035,12.375,12.7832,12.375,2.7871,0,5.0986-.4756,6.1191-.8164v-6.0508c-.9521.2715-3.1279.6113-5.0312.6113-4.624,0-6.2559-2.1758-6.2559-6.5273v-15.0264h11.5586v-6.1875h-11.5586v-7.6152Zm-118.9297,4.624c0-3.6719,2.1074-5.7119,5.9834-5.7119,2.3115,0,4.0791.4761,5.167.8164v-6.0518c-1.0879-.4077-3.5352-.9517-6.5273-.9517-7.2754,0-12.2383,4.0796-12.2383,11.5586v3.3315h-5.3721v6.1875h5.3721v27.4014h7.6152v-27.4014h11.6943v-6.1875h-11.6943v-2.9912Zm-31.5527,2.4473c-10.6748,0-17.542,6.6636-17.542,17.4062,0,10.6758,6.8672,17.2705,17.542,17.2705,10.7432,0,17.6104-6.5947,17.6104-17.2705,0-10.7427-6.8672-17.4062-17.6104-17.4062Zm0,28.4219c-6.1875,0-9.9268-4.2158-9.9268-11.0156,0-6.8672,3.7393-11.1504,9.9268-11.1504s9.9951,4.2832,9.9951,11.1504c0,6.7998-3.8076,11.0156-9.9951,11.0156Z"/></g></svg>