<svg width="176" height="56" viewBox="0 0 176 56" fill="none" xmlns="http://www.w3.org/2000/svg">
<g clip-path="url(#clip0_1995_141)">
<path opacity="1.01495" d="M164.279 4.34717L164.917 5.60721C165.116 6.00637 165.436 6.32704 165.854 6.54658L167.11 7.18658L165.854 7.82657C165.456 8.02616 165.136 8.34682 164.917 8.76595L164.279 10.026L163.641 8.76595C163.442 8.36678 163.122 8.04612 162.704 7.82657L161.448 7.18658L162.704 6.54658C163.102 6.34699 163.422 6.02633 163.641 5.60721L164.279 4.34717Z" fill="#0822F5"/>
<path opacity="1.09657" d="M81.6394 1.93066L82.2775 3.1907C82.4764 3.58987 82.7961 3.91053 83.214 4.13007L84.4702 4.77007L83.214 5.41007C82.816 5.60965 82.4963 5.93032 82.2775 6.34944L81.6394 7.60948L81.0013 6.34944C80.8024 5.95028 80.4827 5.62961 80.0648 5.41007L78.8086 4.77007L80.0648 4.13007C80.4628 3.93049 80.7825 3.60983 81.0013 3.1907L81.6394 1.93066Z" fill="#0822F5"/>
<path opacity="1.10383" d="M167.239 39.3579L167.877 40.6179C168.076 41.0171 168.396 41.3378 168.814 41.5573L170.07 42.1973L168.814 42.8373C168.416 43.0369 168.096 43.3576 167.877 43.7767L167.239 45.0367L166.601 43.7767C166.402 43.3775 166.082 43.0569 165.664 42.8373L164.408 42.1973L165.664 41.5573C166.062 41.3577 166.382 41.0371 166.601 40.6179L167.239 39.3579Z" fill="#0822F5"/>
<path opacity="0.905724" d="M2.83081 23.1975L3.46886 24.4575C3.66784 24.8567 3.98753 25.1774 4.40539 25.3969L5.66161 26.0369L4.40539 26.6769C4.00743 26.8765 3.68774 27.1972 3.46886 27.6163L2.83081 28.8763L2.19275 27.6163C1.99377 27.2171 1.67408 26.8965 1.25622 26.6769L0 26.0369L1.25622 25.3969C1.65418 25.1973 1.97387 24.8767 2.19275 24.4575L2.83081 23.1975Z" fill="#0822F5"/>
<path d="M14.5654 35.5643L42.8536 21.3619V20.0859H14.5654V9.99365H60.511V25.1327L32.2799 39.2207V40.4953H60.6277V50.5876H14.5654V35.567V35.5643Z" fill="black"/>
<path d="M96.2128 30.9251V29.5333C103.993 29.5333 109.165 26.2694 109.165 20.564C109.165 13.0557 103.698 10.0007 93.8887 10.0007H63.624V50.5801H93.8887C104.461 50.5801 109.165 46.7653 109.165 40.7885C109.165 34.8116 105.392 30.9251 96.2128 30.9251ZM88.1369 41.3606H79.017V34.5774H88.1369C91.0871 34.5774 92.6099 35.9147 92.6099 37.9411C92.6099 40.5636 90.8337 41.3593 88.1369 41.3593V41.3606ZM88.1369 25.9408H79.017V19.2122H88.1369C90.5034 19.2122 92.6099 19.8003 92.6099 22.6304C92.6099 25.4605 90.1824 25.9395 88.1369 25.9395V25.9408Z" fill="black"/>
<path d="M111.301 9.99854H139.126C156.021 9.99854 163.636 18.3438 163.636 30.2882C163.636 42.834 154.482 50.5779 139.126 50.5779H111.301V9.99854ZM147.199 30.2882C147.199 23.1245 142.218 20.4328 137.382 20.4328H127.392V40.1423H137.382C142.16 40.1423 147.199 37.4506 147.199 30.2869V30.2882Z" fill="black"/>
<path opacity="0.596148" d="M146.402 14.2175C146.402 14.2175 154.529 15.081 155.152 3.33887C155.152 3.33887 155.073 13.036 163.369 14.1842C163.369 14.1842 155.707 14.6393 155.401 24.8353C155.39 24.8473 155.459 15.2061 146.402 14.2175Z" fill="#F0FF27" stroke="black" stroke-linejoin="round"/>
<path opacity="0.324772" d="M1.16504 39.8337C1.16504 39.8337 9.29134 40.6972 9.9148 28.9551C9.9148 28.9551 9.83521 38.6522 18.1313 39.8004C18.1313 39.8004 10.4693 40.2555 10.1642 50.4516C10.1523 50.4635 10.2212 40.8223 1.16504 39.8337Z" fill="#F0FF27" stroke="black" stroke-linejoin="round"/>
<path opacity="0.151851" d="M164.346 17.9782C164.346 17.9782 169.266 18.5011 169.644 11.3906C169.644 11.3906 169.596 17.2624 174.618 17.9569C174.618 17.9569 169.979 18.2324 169.794 24.4061C169.787 24.4128 169.828 18.5756 164.346 17.9769V17.9782Z" fill="#F0FF27" stroke="black" stroke-linejoin="round"/>
<path opacity="0.0628216" d="M67.9766 7.58759C67.9766 7.58759 72.8966 8.1105 73.2747 1C73.2747 1 73.227 6.87175 78.2492 7.5663C78.2492 7.5663 73.6103 7.84173 73.4246 14.0155C73.418 14.0222 73.4591 8.18501 67.9766 7.58626V7.58759Z" fill="#F0FF27" stroke="black" stroke-linejoin="round"/>
<path opacity="0.0235497" d="M15.9355 23.2949C15.9355 23.2949 20.8556 23.8178 21.2337 16.7073C21.2337 16.7073 21.1859 22.579 26.2082 23.2736C26.2082 23.2736 21.5693 23.549 21.3836 29.7228C21.377 29.7294 21.4181 23.8923 15.9355 23.2935V23.2949Z" fill="#F0FF27" stroke="black" stroke-linejoin="round"/>
<path opacity="0.01" d="M102.614 50.321L103.252 51.5811C103.451 51.9802 103.771 52.3009 104.189 52.5205L105.445 53.1605L104.189 53.8005C103.791 54 103.471 54.3207 103.252 54.7398L102.614 55.9999L101.976 54.7398C101.777 54.3407 101.457 54.02 101.039 53.8005L99.7832 53.1605L101.039 52.5205C101.437 52.3209 101.757 52.0002 101.976 51.5811L102.614 50.321Z" fill="#0822F5"/>
<path opacity="0.01" d="M89.5137 48.7829C89.5137 48.7829 94.4338 49.3058 94.8118 42.1953C94.8118 42.1953 94.7641 48.0671 99.7863 48.7616C99.7863 48.7616 95.1474 49.037 94.9617 55.2108C94.9551 55.2175 94.9962 49.3803 89.5137 48.7816V48.7829Z" fill="#F0FF27" stroke="black" stroke-linejoin="round"/>
</g>
<defs>
<clipPath id="clip0_1995_141">
<rect width="176" height="56" fill="white"/>
</clipPath>
</defs>
</svg>
